<svg viewBox="0 0 300 285" xmlns="http://www.w3.org/2000/svg"><g transform="translate(-359.41 -245.52)"><path d="m629.41 305.52h-60v-30a29.9 29.9 0 0 0 -30-30h-60a29.9 29.9 0 0 0 -30 30v30h-60a29.77 29.77 0 0 0 -29.85 30l-.15 165a29.9 29.9 0 0 0 30 30h240a29.9 29.9 0 0 0 30-30v-165a29.9 29.9 0 0 0 -30-30zm-90 0h-60v-30h60z" fill="#1fa64a"/><g fill="#fff"><path d="m417.33 393.91-3.3-6.66h-11.52l-3.18 6.66h-12.33l21.36-44.39 21.31 44.39zm-9-24.48-3.86 9.27h7.66z"/><path d="m433.49 352.32h15.38a19.6 19.6 0 0 1 8.89 1.78 11.86 11.86 0 0 1 5.24 4.9 16 16 0 0 1 -.14 14.68 11.9 11.9 0 0 1 -5.65 5l9.85 15.27h-12.7l-7.66-13.73h-2.35v13.73h-10.86zm14.51 9.74h-3.64v9.27h3.64a5.82 5.82 0 0 0 4-1.22 5 5 0 0 0 0-6.86 5.92 5.92 0 0 0 -4-1.19z"/><path d="m503.67 382.38q0 6.18-4.19 8.85t-11.58 2.68h-16.77v-41.59h15.77a21.83 21.83 0 0 1 7.46 1.18 11.61 11.61 0 0 1 5.17 3.54 10 10 0 0 1 .42 11.14 10.45 10.45 0 0 1 -4.05 3.51 14 14 0 0 1 5.54 3.92 10 10 0 0 1 2.23 6.77zm-18.17-21.27h-3.5v7.61h3.52q4.63 0 4.64-3.93-.02-3.68-4.66-3.68zm-3.52 24h4.52a8.84 8.84 0 0 0 4.17-.89c1.14-.59 1.71-1.8 1.71-3.62a3.22 3.22 0 0 0 -1.71-3.24 9.81 9.81 0 0 0 -4.17-.8h-4.5z"/><path d="m510.05 352.32h27.12v9.32h-16.72v6.12h15.6v9.1h-15.6v7.72h16.72v9.33h-27.12z"/><path d="m544.66 352.32h11.07v41.59h-11.07z"/><path d="m559.87 362.65v-10.33h32.83v10.33h-11v31.26h-10.87v-31.26z"/><path d="m601.92 378.7a16.47 16.47 0 0 0 4.2 5.14 8.34 8.34 0 0 0 5.2 1.87 5 5 0 0 0 3-.83 2.86 2.86 0 0 0 1.18-2.5 3.22 3.22 0 0 0 -.65-2 6.62 6.62 0 0 0 -2.29-1.66c-1.1-.56-2.65-1.23-4.67-2-.93-.4-2-.92-3.21-1.58a16.28 16.28 0 0 1 -3.47-2.52 12.86 12.86 0 0 1 -2.74-3.78 11.89 11.89 0 0 1 -1.09-5.31 11.1 11.1 0 0 1 2-6.66 12.28 12.28 0 0 1 5.23-4.16 17.77 17.77 0 0 1 7.18-1.42 16.92 16.92 0 0 1 7.19 1.39 15.77 15.77 0 0 1 5 3.51 18.24 18.24 0 0 1 3 4.25l-8.17 4.81q-2.69-4.45-6.71-4.46c-2.35 0-3.52.86-3.52 2.56 0 1.35.79 2.4 2.37 3.18s3.63 1.63 6.13 2.58a17.5 17.5 0 0 1 7.21 4.73 11.71 11.71 0 0 1 2.8 8.11 12.88 12.88 0 0 1 -1.29 5.88 12.46 12.46 0 0 1 -3.44 4.25 15.06 15.06 0 0 1 -4.86 2.55 18.28 18.28 0 0 1 -5.62.86 18.62 18.62 0 0 1 -7.58-1.49 19.11 19.11 0 0 1 -5.95-4 17.17 17.17 0 0 1 -3.81-5.59z"/><path d="m394 450.59v-8.67h20.25a29.77 29.77 0 0 1 -.87 9.62 22.3 22.3 0 0 1 -3.83 7.94 18.3 18.3 0 0 1 -6.57 5.34 20.39 20.39 0 0 1 -9.09 1.93 22.64 22.64 0 0 1 -11.28-2.75 20.14 20.14 0 0 1 -7.78-7.81 25.67 25.67 0 0 1 -1.14-20.83 19.64 19.64 0 0 1 4.72-6.89 21 21 0 0 1 7.13-4.37 25.21 25.21 0 0 1 8.84-1.51 20.61 20.61 0 0 1 7.66 1.33 20.07 20.07 0 0 1 5.93 3.63 25.92 25.92 0 0 1 4.47 5.2l-9.95 5.05a11.94 11.94 0 0 0 -3.08-3.8 7.75 7.75 0 0 0 -5-1.55 11.07 11.07 0 0 0 -5.51 1.4 10.17 10.17 0 0 0 -4 4.07 13.27 13.27 0 0 0 -1.48 6.53q0 5.77 3 9.12a10.21 10.21 0 0 0 7.92 3.36 9.37 9.37 0 0 0 6.06-1.78 9.73 9.73 0 0 0 3.16-4.52z"/><path d="m420.44 423.62h15.37a19.64 19.64 0 0 1 8.9 1.78 11.84 11.84 0 0 1 5.22 4.9 16 16 0 0 1 -.14 14.68 11.92 11.92 0 0 1 -5.64 5l9.85 15.23h-12.7l-7.66-13.73h-2.35v13.73h-10.85zm14.48 9.74h-3.64v9.27h3.64a5.87 5.87 0 0 0 4-1.22 5 5 0 0 0 0-6.86 6 6 0 0 0 -4-1.19z"/><path d="m457.79 423.62h10.91v27a7.25 7.25 0 0 0 1.37 4.61 6 6 0 0 0 8.44 0 7.31 7.31 0 0 0 1.37-4.61v-27h10.85v27.92a16.32 16.32 0 0 1 -2.24 9 13.15 13.15 0 0 1 -5.95 5.05 20.61 20.61 0 0 1 -8.25 1.61 20.83 20.83 0 0 1 -8.28-1.61 13.07 13.07 0 0 1 -6-5.05 16.32 16.32 0 0 1 -2.24-9z"/><path d="m498.5 423.62h14.5q8.06 0 11.94 3.68t3.89 10.22q0 6.48-3.89 10.22t-11.94 3.74h-3.63v13.73h-10.87zm14.5 9.38h-3.63v9.2h3.63a5.83 5.83 0 0 0 4-1.21 4.34 4.34 0 0 0 1.37-3.42q-.02-4.62-5.37-4.57z"/><path d="m534.57 423.62h14.48q8.06 0 11.94 3.68t3.89 10.22q0 6.48-3.89 10.22t-11.94 3.74h-3.63v13.73h-10.85zm14.48 9.38h-3.63v9.2h3.63a5.85 5.85 0 0 0 4-1.21 4.34 4.34 0 0 0 1.37-3.42q0-4.62-5.37-4.57z"/><path d="m570.64 423.62h27.12v9.38h-16.76v6.12h15.6v9.09h-15.6v7.72h16.72v9.33h-27.08z"/><path d="m631.48 423.62h10.45v43.67l-26.28-23.17v21.09h-10.4v-43.67l26.23 23.17z"/></g></g></svg>