<svg id="Ebene_1" data-name="Ebene 1" xmlns="http://www.w3.org/2000/svg" viewBox="0 0 485 478">
    <rect fill="#1da64a" x="144.22" y="101.51" width="196.94" height="134.53" />
    <rect fill="#1da64a" x="217.73" y="51.58" width="48.54" height="24.96" />
    <polygon fill="#1da64a" points="102.6 328.58 116.7 328.58 109.65 312.19 102.6 328.58" />
    <path fill="#1da64a"
        d="M663.47,578.1a11.49,11.49,0,0,0-7.3-2.13h-6.8v16.56h6.8a11.66,11.66,0,0,0,7.3-2.09,7.23,7.23,0,0,0,2.71-6.11A7.44,7.44,0,0,0,663.47,578.1Z"
        transform="translate(-407.08 -174.08)" />
    <path fill="#1da64a"
        d="M629.73,501a13.28,13.28,0,0,0-7.38-1.93H614.8v16.57h7.55a12.69,12.69,0,0,0,7.38-2q3-2.06,2.95-6.48Q632.68,502.91,629.73,501Z"
        transform="translate(-407.08 -174.08)" />
    <path fill="#1da64a"
        d="M557,578.35a11.18,11.18,0,0,0-7.3-2.22h-6.81v17.06h6.81a11,11,0,0,0,7.3-2.26,8.68,8.68,0,0,0,0-12.58Z"
        transform="translate(-407.08 -174.08)" />
    <path fill="#1da64a"
        d="M627.19,488.68a6.23,6.23,0,0,0,2.21-5,6,6,0,0,0-2.21-5,9.53,9.53,0,0,0-6.07-1.76H614.8v13.61h6.32A9.2,9.2,0,0,0,627.19,488.68Z"
        transform="translate(-407.08 -174.08)" />
    <path fill="#1da64a"
        d="M712.67,578.1a11.49,11.49,0,0,0-7.3-2.13h-6.8v16.56h6.8a11.66,11.66,0,0,0,7.3-2.09,7.23,7.23,0,0,0,2.71-6.11A7.44,7.44,0,0,0,712.67,578.1Z"
        transform="translate(-407.08 -174.08)" />
    <path fill="#1da64a"
        d="M832.08,174.08h-365a60,60,0,0,0-60,60v358a60,60,0,0,0,60,60h365a60,60,0,0,0,60-60v-358A60,60,0,0,0,832.08,174.08ZM526.34,275.21c0-6.76,2.46-12.3,7.12-17.34a23,23,0,0,1,17.43-7.25h49V226.35A22.88,22.88,0,0,1,607,209.11a23.53,23.53,0,0,1,17.48-7H673.7a23.53,23.53,0,0,1,17.48,7,22.88,22.88,0,0,1,7.14,17.24v24.27h49.93l-1,.1A23,23,0,0,1,764.7,258c4.67,5,7.12,10.57,7.12,17.33V410.48c0,6.76-2.45,12.3-7.11,17.34a22.94,22.94,0,0,1-17.43,7.26H550.89a22.92,22.92,0,0,1-17.43-7.26c-4.66-5-7.12-10.58-7.12-17.34Zm195.23,203V467.56h42.72v10.66h-15.5V525H737V478.22Zm-6.64-10.66V525H703v-57.4Zm-25.18,22.06v9.76H666.3V515h25.09v10H654.82v-57.4h36.57v10H666.3v12.05ZM596.44,525h-14l-13.37-20.82H564V525H552.16v-57.4h19.35a26.25,26.25,0,0,1,11.6,2.34,17.22,17.22,0,0,1,7.34,6.44,19.25,19.25,0,0,1-.57,20.05,17.45,17.45,0,0,1-9,6.35Zm-76.38,80.12a29.55,29.55,0,0,1-5.5,10.25,26,26,0,0,1-9.18,7,29.86,29.86,0,0,1-12.63,2.54A32.4,32.4,0,0,1,476.88,621,27.72,27.72,0,0,1,466,610.41a30.85,30.85,0,0,1-3.94-15.75,30,30,0,0,1,4-15.66,27.88,27.88,0,0,1,11-10.45,33.38,33.38,0,0,1,15.95-3.73,30.18,30.18,0,0,1,15.09,3.56,29.46,29.46,0,0,1,10.25,9.56l-10.09,5.9a18.66,18.66,0,0,0-5.95-6.11,16.77,16.77,0,0,0-9.3-2.42,19.25,19.25,0,0,0-9.43,2.34,17.31,17.31,0,0,0-6.77,6.68,20.34,20.34,0,0,0-2.5,10.33,21.1,21.1,0,0,0,2.46,10.42,17.51,17.51,0,0,0,6.68,6.84,18.82,18.82,0,0,0,9.56,2.42q7.05,0,11.11-3.56a17.42,17.42,0,0,0,5.45-8.74h-16.4V592.7h28.37A36.79,36.79,0,0,1,520.06,605.08ZM506.89,512,501,525H487.62l29.11-60.84L545.93,525H532.56l-6-13Zm54.49,111.35L548,602.54h-5.09v20.82H531.12V566h19.36a26.28,26.28,0,0,1,11.6,2.34,17.28,17.28,0,0,1,7.34,6.44,17.86,17.86,0,0,1,2.54,9.59,17.58,17.58,0,0,1-3.12,10.46,17.37,17.37,0,0,1-9,6.35l15.58,22.22Zm64.21-18.86a21.39,21.39,0,0,1-2.87,11.4,18.21,18.21,0,0,1-7.87,7.05,26,26,0,0,1-11.32,2.38A25.66,25.66,0,0,1,592.26,623a18.25,18.25,0,0,1-7.84-7.05,21.39,21.39,0,0,1-2.87-11.4V566h11.73v37.89a11.33,11.33,0,0,0,2.62,7.75c1.75,2,4.3,3,7.63,3s6-1,7.67-3a11.46,11.46,0,0,0,2.58-7.75V566h11.81ZM623.33,525H603v-57.4h19.18a29,29,0,0,1,10,1.6A15.09,15.09,0,0,1,639,474a12.83,12.83,0,0,1,2.5,8.12,11.55,11.55,0,0,1-2.3,7.25A14.81,14.81,0,0,1,633,494a19,19,0,0,1,8.44,5.12,13.22,13.22,0,0,1,3.37,9.47,15.23,15.23,0,0,1-2.71,9.31,15.64,15.64,0,0,1-7.54,5.37A33.44,33.44,0,0,1,623.33,525ZM672,597.66q-5.58,4.88-15.83,4.88h-6.8v20.82H637.56V566h18.61q10.26,0,15.83,4.92t5.58,13.45Q677.58,592.78,672,597.66Zm49.2,0q-5.58,4.88-15.83,4.88h-6.8v20.82H686.76V566h18.61q10.26,0,15.83,4.92t5.58,13.45Q726.78,592.78,721.2,597.66ZM772.53,576H747.44v12h23.45v9.76H747.44v15.58h25.09v10H736V566h36.57Zm.25-56.83a25.2,25.2,0,0,1-5.29-7.46l8.52-6.07a27.65,27.65,0,0,0,6.28,7.71,12.41,12.41,0,0,0,8.16,2.95,8.49,8.49,0,0,0,5.74-1.84,6.14,6.14,0,0,0,2.13-4.88,6.67,6.67,0,0,0-1.35-4.31,11.48,11.48,0,0,0-4-2.95c-1.75-.85-3.91-1.76-6.48-2.75-1.42-.54-3-1.23-4.76-2.05a23.41,23.41,0,0,1-5-3.24,16,16,0,0,1-4-4.92,14.61,14.61,0,0,1-1.56-7,14.25,14.25,0,0,1,2.5-8.4,16.46,16.46,0,0,1,6.8-5.54,23.15,23.15,0,0,1,9.72-2,22.41,22.41,0,0,1,9.43,1.84,21.18,21.18,0,0,1,6.68,4.67,24.65,24.65,0,0,1,4.15,5.79L801.27,484a18.75,18.75,0,0,0-4.51-5.29,10.18,10.18,0,0,0-6.56-2.17,7.36,7.36,0,0,0-5.16,1.6,5,5,0,0,0-1.73,3.73,6.17,6.17,0,0,0,3.2,5.29,45.48,45.48,0,0,0,9.68,4.31,30.2,30.2,0,0,1,7.09,3.56,18.49,18.49,0,0,1,5.41,5.66,15.4,15.4,0,0,1,2.09,8.24,15.64,15.64,0,0,1-2.87,9.51,18.17,18.17,0,0,1-7.5,6,23.92,23.92,0,0,1-9.8,2.05,24.65,24.65,0,0,1-9.88-2A25.64,25.64,0,0,1,772.78,519.14Zm63.46,107.09-40.67-38.29v35.42H784.09V563.09l40.76,38.3V566h11.39Z"
        transform="translate(-407.08 -174.08)" />
    <path fill="#1da64a"
        d="M578.07,480a11.16,11.16,0,0,0-7.3-2.22H564v17.06h6.8a11,11,0,0,0,7.3-2.26,8.65,8.65,0,0,0,0-12.58Z"
        transform="translate(-407.08 -174.08)" />
</svg>