<?xml version="1.0" encoding="UTF-8" standalone="no"?>
<svg
   xmlns:dc="http://purl.org/dc/elements/1.1/"
   xmlns:cc="http://creativecommons.org/ns#"
   xmlns:rdf="http://www.w3.org/1999/02/22-rdf-syntax-ns#"
   xmlns:svg="http://www.w3.org/2000/svg"
   xmlns="http://www.w3.org/2000/svg"
   xmlns:sodipodi="http://sodipodi.sourceforge.net/DTD/sodipodi-0.dtd"
   xmlns:inkscape="http://www.inkscape.org/namespaces/inkscape"
   id="Ebene_1"
   data-name="Ebene 1"
   viewBox="0 0 300 285"
   version="1.1"
   inkscape:version="0.91 r13725"
   sodipodi:docname="Arbeitsgruppen.svg">
  <metadata
     id="metadata39">
    <rdf:RDF>
      <cc:Work
         rdf:about="">
        <dc:format>image/svg+xml</dc:format>
        <dc:type
           rdf:resource="http://purl.org/dc/dcmitype/StillImage" />
        <dc:title></dc:title>
      </cc:Work>
    </rdf:RDF>
  </metadata>
  <sodipodi:namedview
     pagecolor="#ffffff"
     bordercolor="#666666"
     borderopacity="1"
     objecttolerance="10"
     gridtolerance="10"
     guidetolerance="10"
     inkscape:pageopacity="0"
     inkscape:pageshadow="2"
     inkscape:window-width="1920"
     inkscape:window-height="1017"
     id="namedview37"
     showgrid="false"
     inkscape:zoom="1.1710681"
     inkscape:cx="168.34639"
     inkscape:cy="148.80381"
     inkscape:window-x="-8"
     inkscape:window-y="-8"
     inkscape:window-maximized="1"
     inkscape:current-layer="layer2" />
  <defs
     id="defs3">
    <style
       id="style5">.cls-1{fill:#1fa64a;}.cls-2{fill:#fff;}</style>
  </defs>
  <g
     inkscape:groupmode="layer"
     id="layer1"
     inkscape:label="Layer 1"
     style="display:none" />
  <g
     inkscape:groupmode="layer"
     id="layer2"
     inkscape:label="Layer 2"
     style="display:inline">
    <path
       style="fill:#1fa64a;fill-opacity:1;stroke-width:2;stroke-miterlimit:4;stroke-dasharray:none"
       d="m 118.29883,11.712891 c -9.33725,0 -16.85547,12.355653 -16.85547,27.705078 l 0,2.113281 -48.601563,0 c -29.52714,0 -53.29882613,23.771693 -53.29882825,53.298828 l 0,121.048832 c 0,29.52713 23.77168825,53.29882 53.29882825,53.29882 l 194.220703,0 c 29.52713,0 53.29883,-23.77169 53.29883,-53.29882 l 0,-121.048832 c 0,-29.527135 -23.7717,-53.298828 -53.29883,-53.298828 l -50.49219,0 0,-2.113281 c 0,-15.349425 -7.51819,-27.705078 -16.85547,-27.705078 l -61.41601,0 z m 9.29492,13.332031 45.39453,0 c 1.25115,0 2.25781,1.006664 2.25781,2.257812 l 0,12.421875 c 0,1.251148 -1.00666,2.257813 -2.25781,2.257813 l -45.39453,0 c -1.25115,0 -2.25781,-1.006665 -2.25781,-2.257813 l 0,-12.421875 c 0,-1.251148 1.00666,-2.257812 2.25781,-2.257812 z M 50.203125,88.984375 71.5625,133.50391 l -9.779297,0 -4.380859,-9.48047 -14.400391,0 -4.378906,9.48047 -9.78125,0 21.361328,-44.519535 z m 200.087895,1.679687 c 2.76,0 5.16062,0.478907 7.14062,1.378907 1.92,0.96 3.53883,2.100469 4.79883,3.480469 1.2,1.44 2.10117,2.819765 2.70117,4.259765 l -6.60156,3.960937 c -0.9,-1.62 -1.91914,-2.94148 -3.11914,-4.021484 -1.2,-1.02 -2.76055,-1.558594 -4.56055,-1.558594 -1.68,0 -3.05953,0.418672 -4.01953,1.138672 -0.96,0.779996 -1.43945,1.801096 -1.43945,3.121096 0,1.08 0.4189,2.03976 1.3789,2.75976 0.9,0.78 2.10102,1.43907 3.54102,2.03907 1.44,0.6 3.06023,1.20078 4.74023,1.80078 1.8,0.66 3.47961,1.50008 5.09961,2.58008 1.62,1.08 2.93899,2.40007 3.95899,4.08007 1.02,1.68 1.56054,3.77969 1.56054,6.17969 0,4.08 -1.37953,7.19992 -4.01953,9.41992 -2.7,2.22 -6.36101,3.30078 -11.04101,3.30078 -2.52,0 -4.79899,-0.42086 -6.95899,-1.38086 -2.16,-0.95999 -4.07922,-2.27898 -5.69922,-3.95898 -1.68,-1.68 -2.94125,-3.72055 -3.78125,-6.06055 l 6.24024,-4.32031 c 1.38,2.64 2.88,4.68055 4.5,6.06055 1.62,1.44 3.59945,2.09961 5.93945,2.09961 1.86,0 3.29977,-0.41977 4.25977,-1.25977 0.96,-0.84 1.5,-2.10015 1.5,-3.66015 0,-1.32 -0.41977,-2.46079 -1.25977,-3.30079 -0.84,-0.84 -1.97883,-1.61875 -3.29883,-2.21875 -1.38,-0.6 -2.8814,-1.26132 -4.4414,-1.86132 -1.08,-0.36 -2.21852,-0.8986 -3.47852,-1.5586 -1.32,-0.6 -2.52016,-1.44039 -3.66016,-2.40039 -1.2,-0.96 -2.16086,-2.15961 -2.88086,-3.59961 -0.78,-1.44 -1.13867,-3.12156 -1.13867,-5.10156 0,-2.28 0.59883,-4.259453 1.79883,-5.939453 1.2,-1.68 2.82047,-3.059531 4.98047,-4.019531 2.1,-0.96 4.49977,-1.439454 7.25977,-1.439454 z m -174.115239,0.839844 5.279297,0 3.361328,0 5.519532,0 c 3.299999,0 6.118984,0.599688 8.458984,1.679688 2.339998,1.14 4.140388,2.700234 5.400388,4.740234 1.2,2.04 1.86133,4.379532 1.86133,7.019532 0,3 -0.7818,5.51969 -2.3418,7.67969 -1.56,2.16 -3.719059,3.66109 -6.539059,4.62109 l 11.400389,16.25977 -10.259764,0 -9.839844,-15.24024 -3.660156,0 0,15.24024 -8.640625,0 0,-42.000004 z m 37.265629,0 14.03906,0 c 2.76,0 5.16031,0.419219 7.32031,1.199219 2.1,0.78 3.78047,1.920469 4.98047,3.480469 1.2,1.56 1.85938,3.539453 1.85937,5.939456 0,2.1 -0.59968,3.89984 -1.67968,5.33984 -1.14,1.44 -2.64055,2.58133 -4.56055,3.36133 2.46,0.78 4.50164,2.0393 6.18164,3.7793 1.62,1.74 2.45899,4.02039 2.45899,6.90039 0,2.76 -0.66047,5.03984 -1.98047,6.83984 -1.32,1.8 -3.17953,3.06039 -5.51953,3.90039 -2.34,0.84 -5.09875,1.25977 -8.21875,1.25977 l -14.88086,0 0,-42.000004 z m 37.96875,0 5.51953,0 2.88086,0 18.35937,0 0,7.320313 -18.35937,0 0,8.818361 17.16015,0 0,7.14062 -17.16015,0 0,11.40039 18.35937,0 0,7.32032 -18.35937,0 -2.88086,0 -5.51953,0 0,-42.000004 z m 35.27343,0 8.75977,0 0,42.000004 -8.75977,0 0,-42.000004 z m 13.61329,0 31.25976,0 0,7.798828 -11.33984,0 0,34.201176 -8.64063,0 0,-34.201176 -11.27929,0 0,-7.798828 z m -78.21485,6.900391 0,9.898433 4.61914,0 c 1.86,0 3.35946,-0.41836 4.43945,-1.31835 1.08001,-0.90001 1.6211,-2.16071 1.6211,-3.72071 0,-1.56 -0.54109,-2.75961 -1.6211,-3.599608 -1.07999,-0.84 -2.57945,-1.259765 -4.43945,-1.259765 l -4.61914,0 z m -37.265624,0.478515 0,12.541018 4.978516,0 c 2.22,0 4.019844,-0.5411 5.339844,-1.6211 1.32,-1.08 1.980468,-2.63914 1.980468,-4.61914 0,-1.98 -0.660468,-3.54109 -1.980468,-4.62109 -1.32,-1.08 -3.119844,-1.679688 -5.339844,-1.679688 l -4.978516,0 z m -34.613281,6.300778 -5.160156,12 10.318359,0 -5.158203,-12 z m 71.878905,9.35938 0,12.06055 5.51953,0 c 2.16,0 3.96039,-0.47946 5.40039,-1.43946 1.44,-0.96 2.16016,-2.51968 2.16016,-4.67968 0,-2.04001 -0.72016,-3.54001 -2.16016,-4.5 -1.44,-0.96001 -3.24039,-1.44141 -5.40039,-1.44141 l -5.51953,0 z m 126.59375,49.86133 29.82031,27.47851 0,-25.3789 8.33985,0 0,44.09961 -29.75977,-27.48047 0,25.38086 -8.40039,0 0,-44.09961 z m -213.041014,1.25976 c 4.26,0 7.921015,0.89867 11.041015,2.63867 3.06,1.74 5.58,4.08094 7.5,6.96094 l -7.380859,4.32031 c -1.08,-1.8 -2.578906,-3.2414 -4.378906,-4.4414 -1.8,-1.14 -4.08125,-1.73828 -6.78125,-1.73828 -2.52,0 -4.858438,0.59828 -6.898438,1.73828 -2.1,1.14 -3.780469,2.76133 -4.980469,4.86133 -1.2,2.1 -1.800781,4.62 -1.800781,7.5 0,2.94 0.600781,5.45914 1.800781,7.61914 1.2,2.16 2.819375,3.84101 4.859375,5.04101 2.04,1.2 4.379532,1.74024 7.019532,1.74024 3.42,0 6.121015,-0.84008 8.041015,-2.58008 1.92,-1.68 3.239531,-3.83992 4.019531,-6.41992 l -11.939453,0 0,-6.8418 20.759766,0 c 0.12,3.24 -0.300625,6.24055 -1.140625,9.06055 -0.9,2.88 -2.219531,5.34 -4.019531,7.5 -1.8,2.16 -4.080703,3.89961 -6.720703,5.09961 -2.7,1.26 -5.760235,1.86132 -9.240235,1.86132 -4.38,0 -8.278672,-0.89976 -11.638672,-2.75976 -3.36,-1.86 -5.999921,-4.44078 -7.919921,-7.80078 -1.92,-3.3 -2.88086,-7.13953 -2.88086,-11.51953 0,-4.32 0.959453,-8.16094 2.939453,-11.46094 1.92,-3.24 4.621016,-5.81914 8.041016,-7.61914 3.42,-1.8 7.319219,-2.75977 11.699219,-2.75977 z m 27.884765,0.83985 5.279297,0 3.361328,0 5.519532,0 c 3.299999,0 6.118984,0.59968 8.458984,1.67968 2.34,1.14 4.140391,2.70024 5.40039,4.74024 1.2,2.04 1.861329,4.37953 1.861329,7.01953 0,3 -0.781797,5.51969 -2.341797,7.67969 -1.56,2.16 -3.719063,3.66109 -6.539063,4.62109 l 11.400391,16.25977 -10.259766,0 -9.839844,-15.24024 -3.660156,0 0,15.24024 -8.640625,0 0,-42 z m 36.906249,0 8.63867,0 0,27.71875 c 0,2.34 0.59992,4.26117 1.91993,5.70117 1.25999,1.44 3.12007,2.16015 5.58007,2.16015 2.46,0 4.32008,-0.72015 5.58008,-2.16015 1.26,-1.44 1.91992,-3.36117 1.91992,-5.70117 l 0,-27.71875 8.64063,0 0,28.19921 c 0,3.30001 -0.71961,6.05985 -2.09961,8.33985 -1.44,2.28 -3.35977,4.02016 -5.75977,5.16015 -2.46,1.20001 -5.22125,1.74024 -8.28125,1.74024 -3.12,0 -5.87929,-0.54023 -8.27929,-1.74024 -2.46,-1.13999 -4.37977,-2.88015 -5.75977,-5.16015 -1.44,-2.28 -2.09961,-5.03985 -2.09961,-8.33985 l 0,-28.19921 z m 41.02344,0 5.2793,0 3.36132,0 4.97852,0 c 4.92,0 8.76148,1.19961 11.52148,3.59961 2.76,2.4 4.13868,5.69984 4.13868,9.83984 0,4.14 -1.37868,7.3793 -4.13868,9.7793 -2.76,2.4 -6.60148,3.54101 -11.52148,3.54101 l -4.97852,0 0,15.24024 -8.64062,0 0,-42 z m 35.97656,0 5.2793,0 3.36133,0 4.97851,0 c 4.92,0 8.76149,1.19961 11.52149,3.59961 2.76,2.4 4.13867,5.69984 4.13867,9.83984 0,4.14 -1.37867,7.3793 -4.13867,9.7793 -2.76,2.4 -6.60149,3.54101 -11.52149,3.54101 l -4.97851,0 0,15.24024 -8.64063,0 0,-42 z m 35.97656,0 5.51954,0 2.88085,0 18.35938,0 0,7.32031 -18.35938,0 0,8.81836 17.16016,0 0,7.14062 -17.16016,0 0,11.40039 18.35938,0 0,7.32032 -18.35938,0 -2.88085,0 -5.51954,0 0,-42 z m -63.3125,7.32031 0,12.11914 4.97852,0 c 2.22,0 4.01984,-0.48 5.33984,-1.5 1.32,-1.02 1.98047,-2.52 1.98047,-4.5 0,-1.98 -0.66047,-3.48055 -1.98047,-4.56055 -1.32,-1.02 -3.11984,-1.55859 -5.33984,-1.55859 l -4.97852,0 z m 35.97657,0 0,12.11914 4.97851,0 c 2.22,0 4.01985,-0.48 5.33985,-1.5 1.32,-1.02 1.98046,-2.52 1.98046,-4.5 0,-1.98 -0.66046,-3.48055 -1.98046,-4.56055 -1.32,-1.02 -3.11985,-1.55859 -5.33985,-1.55859 l -4.97851,0 z m -113.906254,0.0586 0,12.54102 4.978516,0 c 2.22,0 4.019844,-0.5411 5.339844,-1.6211 1.32,-1.08 1.980468,-2.63914 1.980468,-4.61914 0,-1.98 -0.660468,-3.54109 -1.980468,-4.62109 -1.32,-1.08 -3.119844,-1.67969 -5.339844,-1.67969 l -4.978516,0 z"
       id="rect4194"
       inkscape:connector-curvature="0" />
  </g>
</svg>
