<svg id="Ebene_1" data-name="Ebene 1" xmlns="http://www.w3.org/2000/svg" viewBox="0 0 495.46 476">
    <rect fill="#1da64a" x="140.3" y="288.65" width="219.65" height="17.87" />
    <rect fill="#1da64a" x="140.3" y="251.86" width="219.65" height="17.87" />
    <rect fill="#1da64a" x="140.3" y="85.81" width="219.65" height="110.35" />
    <path fill="#1da64a"
        d="M706.11,547.69a19.33,19.33,0,0,0-18.73,0,16.67,16.67,0,0,0-6.32,6.68,22.27,22.27,0,0,0,0,19.51,16.63,16.63,0,0,0,6.32,6.69,19.18,19.18,0,0,0,18.65,0,16.72,16.72,0,0,0,6.27-6.69,20.45,20.45,0,0,0,2.26-9.75,20.8,20.8,0,0,0-2.22-9.76A16.46,16.46,0,0,0,706.11,547.69Z"
        transform="translate(-435.35 -144.96)" />
    <path fill="#1da64a"
        d="M605.66,568.84a13.28,13.28,0,0,0-7.38-1.93h-7.54v16.57h7.54a12.69,12.69,0,0,0,7.38-2.05q3-2.05,3-6.48C608.61,572.16,607.63,570.13,605.66,568.84Z"
        transform="translate(-435.35 -144.96)" />
    <path fill="#1da64a"
        d="M603.12,556.54a6.2,6.2,0,0,0,2.21-5,6,6,0,0,0-2.21-5,9.47,9.47,0,0,0-6.07-1.77h-6.31v13.62h6.31A9.21,9.21,0,0,0,603.12,556.54Z"
        transform="translate(-435.35 -144.96)" />
    <path fill="#1da64a"
        d="M870.81,145H495.35a60,60,0,0,0-60,60V561a60,60,0,0,0,60,60H870.81a60,60,0,0,0,60-60V205A60,60,0,0,0,870.81,145ZM618,585.73a15.46,15.46,0,0,1-7.54,5.37,33.41,33.41,0,0,1-11.23,1.73H578.93v-57.4h19.19a28.78,28.78,0,0,1,10,1.6,15,15,0,0,1,6.85,4.79,12.77,12.77,0,0,1,2.5,8.12,11.6,11.6,0,0,1-2.3,7.26,14.81,14.81,0,0,1-6.23,4.63,19,19,0,0,1,8.45,5.13,13.23,13.23,0,0,1,3.36,9.47A15.15,15.15,0,0,1,618,585.73Zm47.4,7.1H630.75v-57.4h11.81v47.06h22.88Zm59.33-16.69a28.52,28.52,0,0,1-15.91,15.91,34.09,34.09,0,0,1-24.36,0,28.47,28.47,0,0,1-15.9-15.91,31.39,31.39,0,0,1-2.26-12,30.69,30.69,0,0,1,2.3-12,28,28,0,0,1,6.43-9.43,30,30,0,0,1,9.64-6.19,31.83,31.83,0,0,1,12-2.21,32.15,32.15,0,0,1,12.06,2.21,30,30,0,0,1,9.63,6.19,27.62,27.62,0,0,1,6.4,9.43,31.23,31.23,0,0,1,2.25,12A31.58,31.58,0,0,1,724.77,576.14Zm66.05-1.6a29.55,29.55,0,0,1-5.5,10.25,25.93,25.93,0,0,1-9.18,7,29.82,29.82,0,0,1-12.63,2.54,32.4,32.4,0,0,1-15.87-3.81,27.72,27.72,0,0,1-10.86-10.62,30.94,30.94,0,0,1-3.94-15.74,30,30,0,0,1,4-15.67,27.88,27.88,0,0,1,11-10.45,33.38,33.38,0,0,1,16-3.73,30.29,30.29,0,0,1,15.09,3.56,29.46,29.46,0,0,1,10.25,9.56l-10.09,5.9a18.73,18.73,0,0,0-5.94-6.11,16.81,16.81,0,0,0-9.31-2.42,19.25,19.25,0,0,0-9.43,2.34,17.38,17.38,0,0,0-6.77,6.68,20.48,20.48,0,0,0-2.5,10.34,21.09,21.09,0,0,0,2.46,10.41,17.5,17.5,0,0,0,6.69,6.85,18.88,18.88,0,0,0,9.55,2.42q7,0,11.11-3.57a17.43,17.43,0,0,0,5.45-8.73H764v-9.35h28.38A37,37,0,0,1,790.82,574.54ZM850,506.12H520v-330H850Z"
        transform="translate(-435.35 -144.96)" />
</svg>