<svg id="Ebene_1" data-name="Ebene 1" xmlns="http://www.w3.org/2000/svg" viewBox="0 0 495.46 476">
    <text x="-401.85" y="-174.58" />
    <path fill="#1da64a"
        d="M747.85,512.2a16.76,16.76,0,0,0,6.27-6.68,20.58,20.58,0,0,0,2.26-9.76,20.86,20.86,0,0,0-2.22-9.76,16.46,16.46,0,0,0-6.23-6.68,19.35,19.35,0,0,0-18.74,0,16.71,16.71,0,0,0-6.31,6.68,22.2,22.2,0,0,0,0,19.52,16.71,16.71,0,0,0,6.31,6.68,19.2,19.2,0,0,0,18.66,0Z"
        transform="translate(-401.85 -174.58)" />
    <path fill="#1da64a"
        d="M561.92,479.65a22.48,22.48,0,0,0-9.23-1.85h-7.05v35.92h7.05a22.47,22.47,0,0,0,9.23-1.84,14.84,14.84,0,0,0,6.64-5.83,22.43,22.43,0,0,0,0-20.58A14.88,14.88,0,0,0,561.92,479.65Z"
        transform="translate(-401.85 -174.58)" />
    <path fill="#1da64a"
        d="M544.57,577.6a11.46,11.46,0,0,0-7.29-2.13h-6.81V592h6.81a11.63,11.63,0,0,0,7.29-2.09,7.23,7.23,0,0,0,2.71-6.11A7.44,7.44,0,0,0,544.57,577.6Z"
        transform="translate(-401.85 -174.58)" />
    <path fill="#1da64a"
        d="M837.31,174.58H461.85a60,60,0,0,0-60,60v356a60,60,0,0,0,60,60H837.31a60,60,0,0,0,60-60v-356A60,60,0,0,0,837.31,174.58ZM506.36,616.3a18.17,18.17,0,0,1-7.5,6,23.92,23.92,0,0,1-9.8,2.05,24.65,24.65,0,0,1-9.88-2,25.69,25.69,0,0,1-8-5.33,25.34,25.34,0,0,1-5.28-7.46l8.52-6.07a27.65,27.65,0,0,0,6.28,7.71,12.4,12.4,0,0,0,8.16,2.95,8.49,8.49,0,0,0,5.74-1.84,6.14,6.14,0,0,0,2.13-4.88,6.62,6.62,0,0,0-1.36-4.31,11.33,11.33,0,0,0-4-2.95c-1.75-.85-3.91-1.76-6.48-2.75-1.42-.54-3-1.23-4.76-2.05a23.41,23.41,0,0,1-5-3.24,16.18,16.18,0,0,1-4-4.92,14.64,14.64,0,0,1-1.55-7,14.25,14.25,0,0,1,2.5-8.4,16.46,16.46,0,0,1,6.8-5.54,23.15,23.15,0,0,1,9.72-2,22.41,22.41,0,0,1,9.43,1.84,21.18,21.18,0,0,1,6.68,4.67,24.31,24.31,0,0,1,4.14,5.79l-9.18,5.24a18.92,18.92,0,0,0-4.51-5.29,10.18,10.18,0,0,0-6.56-2.17,7.34,7.34,0,0,0-5.17,1.6,5,5,0,0,0-1.72,3.73A6.17,6.17,0,0,0,485,585a45.48,45.48,0,0,0,9.68,4.31,30.4,30.4,0,0,1,7.09,3.56,18.49,18.49,0,0,1,5.41,5.66,15.5,15.5,0,0,1,2.09,8.24A15.71,15.71,0,0,1,506.36,616.3ZM513.83,285a27.55,27.55,0,0,1,27.58-27.35H651.84l0,.21,69-54.72V422.41l-68.79-54.76H610.78v54.77A13.77,13.77,0,0,1,597,436.1H568.67a13.77,13.77,0,0,1-13.78-13.68V367.65H541.41a27.55,27.55,0,0,1-27.58-27.36Zm113.4,204.16v9.76H603.78v15.58h25.09v10H592.3v-57.4h36.57v10H603.78v12.05Zm-2,59.86a6.88,6.88,0,0,1,9.1,0,6,6,0,0,1,0,8.65,6.73,6.73,0,0,1-9.1,0,6,6,0,0,1,0-8.65Zm-42-53.22a29.52,29.52,0,0,1-3.77,15.17,25.6,25.6,0,0,1-10.53,10A33.89,33.89,0,0,1,553,524.46H533.5v-57.4H553a33.89,33.89,0,0,1,15.87,3.53,25.68,25.68,0,0,1,10.53,10A29.49,29.49,0,0,1,583.19,495.76ZM553.1,597.16Q547.52,602,537.28,602h-6.81v20.82H518.66v-57.4h18.62q10.25,0,15.82,4.92t5.58,13.45Q558.68,592.28,553.1,597.16Zm45,25.7L584.75,602h-5.08v20.82H567.86v-57.4h19.35a26.3,26.3,0,0,1,11.61,2.34,17.25,17.25,0,0,1,7.33,6.44,17.77,17.77,0,0,1,2.55,9.59,16.75,16.75,0,0,1-12.14,16.81l15.58,22.22ZM662.32,604a21.3,21.3,0,0,1-2.87,11.4,18.1,18.1,0,0,1-7.87,7.05,28,28,0,0,1-22.59,0,18.17,18.17,0,0,1-7.83-7.05,21.39,21.39,0,0,1-2.87-11.4V565.46H630v37.89a11.33,11.33,0,0,0,2.62,7.75q2.63,3,7.63,3t7.66-3a11.41,11.41,0,0,0,2.59-7.75V565.46h11.8Zm-17.87-50.67a5.7,5.7,0,0,1,1.84-4.35,6.89,6.89,0,0,1,9.11,0,6,6,0,0,1,0,8.65,6.75,6.75,0,0,1-9.11,0A5.71,5.71,0,0,1,644.45,553.33Zm8.77-60.93-3.77,32.06h-12.3l8.53-60.27,24.11,37,23.94-37,8.69,60.27H690l-3.69-32.06-16.56,26.73Zm66.5,91.1a23.73,23.73,0,0,0-7.17-5.61,22,22,0,0,0-10.38-2.26,18.83,18.83,0,0,0-9.1,2.26,17.53,17.53,0,0,0-6.72,6.39,20.41,20.41,0,0,0,0,19.72,17.45,17.45,0,0,0,6.72,6.44,18.94,18.94,0,0,0,9.1,2.26,21.8,21.8,0,0,0,10.38-2.3,25,25,0,0,0,7.17-5.58v13.29a28.36,28.36,0,0,1-7.62,4.34A29.68,29.68,0,0,1,701.68,624a33.69,33.69,0,0,1-12.26-2.17,29,29,0,0,1-9.71-6.11,27.61,27.61,0,0,1-6.4-9.43,33.3,33.3,0,0,1,0-24.27,27.61,27.61,0,0,1,6.4-9.43,28.83,28.83,0,0,1,9.71-6.11,33.69,33.69,0,0,1,12.26-2.17,30.49,30.49,0,0,1,10.42,1.51,26.77,26.77,0,0,1,7.62,4.39Zm-3-66.13a28.64,28.64,0,0,1-6.31-9.59,31.44,31.44,0,0,1-2.26-12,30.68,30.68,0,0,1,2.3-12,28,28,0,0,1,6.43-9.43,29.85,29.85,0,0,1,9.64-6.19,31.63,31.63,0,0,1,12-2.21,32,32,0,0,1,12.06,2.21,29.81,29.81,0,0,1,9.63,6.19,27.62,27.62,0,0,1,6.4,9.43,31.21,31.21,0,0,1,2.25,12,31.63,31.63,0,0,1-2.25,12,28.47,28.47,0,0,1-15.91,15.9,34,34,0,0,1-24.36,0A28.64,28.64,0,0,1,716.73,517.37Zm64.9,105.49h-11.8V597.69H743.09v25.17h-11.8v-57.4h11.8V587h26.74V565.46h11.8Zm-32.84-255.6V257.82a60.67,60.67,0,0,1,0,109.44ZM830.5,575.47H805.41v12h23.45v9.76H805.41v15.58H830.5v10H793.93v-57.4H830.5Z"
        transform="translate(-401.85 -174.58)" />
    <path fill="#1da64a"
        d="M593.77,577.85a11.14,11.14,0,0,0-7.3-2.22h-6.8v17.06h6.8a11,11,0,0,0,7.3-2.26,8.65,8.65,0,0,0,0-12.58Z"
        transform="translate(-401.85 -174.58)" />
    <polygon fill="#1da64a"
        points="291.91 187.18 291.91 187.01 291.91 88.92 264.27 110.76 139.93 110.76 139.93 165.34 264.27 165.34 291.91 187.18" />
</svg>