<svg viewBox="0 0 390 255" xmlns="http://www.w3.org/2000/svg"><ellipse cx="195" cy="115.85" fill="#1fa64a" rx="195" ry="115.85"/><g transform="translate(-209.47 -263.22)"><path d="m328.62 465.35c-18.84 23.31-44.78 41.81-74.15 52.87l64.64-3.47c15.5-.83 31.12-1.68 46.16-5.2 23.51-5.5 45.09-17.63 61-34.29" fill="#1fa64a"/><path d="m280.7 513.88c10.45-1 21-2.85 30.31-7.71s17.16-13.17 19.23-23.32a147.89 147.89 0 0 0 -28.56 22.65 147.41 147.41 0 0 0 64.77-20.5c-4.4 1.86-9.42 1.29-14.17.7s-9.76-1.17-14.17.68-7.75 7.05-5.79 11.35a128.76 128.76 0 0 0 59.57-3.78" fill="#1fa64a"/><path d="m280.7 514.26c16.42-1.64 34.41-5.63 44.7-19.78a30.41 30.41 0 0 0 5.2-11.48.38.38 0 0 0 -.55-.43 150.57 150.57 0 0 0 -28.63 22.71.38.38 0 0 0 .26.64 147.6 147.6 0 0 0 65-20.6c.35-.21.12-.85-.29-.68-7 2.8-14.34 0-21.5.11-5.54.08-11.66 2.43-13.21 8.33a7.4 7.4 0 0 0 -.1 3.47 3.06 3.06 0 0 0 .46 1.37c.44.43 1.47.39 2.07.48 3.57.56 7.16 1 10.76 1.24a129.39 129.39 0 0 0 47.13-5.38.37.37 0 0 0 -.2-.72 128.93 128.93 0 0 1 -40.89 5.59c-3.43-.08-6.85-.31-10.25-.66q-2.75-.3-5.46-.7a8.72 8.72 0 0 1 -2.31-.37c-.71-.41-.74-1.58-.75-2.31-.06-2.87 1.79-5.57 4-7.22 2.6-1.91 6-2.42 9.13-2.42 7.08 0 14.38 2.64 21.26-.14l-.29-.69a147.22 147.22 0 0 1 -49.24 18.55 145.17 145.17 0 0 1 -15.27 1.95l.27.64a149.39 149.39 0 0 1 28.48-22.59l-.56-.42c-1.54 7.29-6 13.55-11.68 18.24-6.45 5.3-14.37 8.38-22.43 10.21a123.63 123.63 0 0 1 -15.06 2.31c-.48 0-.48.8 0 .75z" fill="#1fa64a"/><path d="m337.48 363.33h-14.65v-41.59h14.65a24.29 24.29 0 0 1 11.41 2.52 17.77 17.77 0 0 1 7.41 7.16 25 25 0 0 1 0 22.2 17.64 17.64 0 0 1 -7.41 7.18 24.17 24.17 0 0 1 -11.41 2.53zm-.48-31.49h-2.9v21.39h2.9a15 15 0 0 0 5-.86 7.94 7.94 0 0 0 3.94-3.18 15.15 15.15 0 0 0 0-13.31 7.83 7.83 0 0 0 -3.94-3.18 15 15 0 0 0 -5-.86z" fill="#fff"/><path d="m364.71 321.74h27.13v9.33h-16.72v6.12h15.6v9.09h-15.6v7.72h16.72v9.33h-27.13z" fill="#fff"/><path d="m410.85 344.26-2.24 19.07h-11.52l6.82-43.67 17 23.88 17-23.88 6.83 43.67h-11.58l-2.16-19.07-10.07 15.21z" fill="#fff"/><path d="m448.26 342.53a23.34 23.34 0 0 1 1.65-8.94 20.62 20.62 0 0 1 4.56-6.89 20.32 20.32 0 0 1 6.82-4.46 23.71 23.71 0 0 1 17 0 20.39 20.39 0 0 1 6.79 4.46 20.06 20.06 0 0 1 4.51 6.89 24.12 24.12 0 0 1 1.59 8.94 25.09 25.09 0 0 1 -1.56 9 21 21 0 0 1 -4.45 7.1 20 20 0 0 1 -6.79 4.63 23.45 23.45 0 0 1 -17.23 0 20 20 0 0 1 -6.79-4.63 21.4 21.4 0 0 1 -4.48-7.1 24.67 24.67 0 0 1 -1.62-9zm11.52 0a12.22 12.22 0 0 0 2.71 8.23 9 9 0 0 0 7.24 3.18 8.88 8.88 0 0 0 7.19-3.18 12.41 12.41 0 0 0 2.66-8.23 12.65 12.65 0 0 0 -2.58-8.26 8.86 8.86 0 0 0 -7.27-3.14 9.1 9.1 0 0 0 -7.24 3.14 12.23 12.23 0 0 0 -2.71 8.26z" fill="#fff"/><path d="m280.22 419.42a16.32 16.32 0 0 0 4.19 5.14 8.3 8.3 0 0 0 5.2 1.87 5 5 0 0 0 3-.83 2.86 2.86 0 0 0 1.17-2.5 3.21 3.21 0 0 0 -.64-2 6.85 6.85 0 0 0 -2.29-1.66c-1.1-.55-2.66-1.23-4.67-2-.94-.4-2-.92-3.22-1.57a17 17 0 0 1 -3.47-2.53 12.94 12.94 0 0 1 -2.74-3.77 12.11 12.11 0 0 1 -1.09-5.32 11.21 11.21 0 0 1 2-6.66 12.38 12.38 0 0 1 5.23-4.15 17.65 17.65 0 0 1 7.11-1.44 16.87 16.87 0 0 1 7.18 1.4 15.79 15.79 0 0 1 4.95 3.5 18.45 18.45 0 0 1 3 4.25l-8.13 4.78q-2.69-4.46-6.71-4.45-3.53 0-3.53 2.55c0 1.35.79 2.41 2.38 3.18s3.62 1.63 6.12 2.58a17.54 17.54 0 0 1 7.22 4.73 11.7 11.7 0 0 1 2.79 8.11 13 13 0 0 1 -1.28 5.88 12.58 12.58 0 0 1 -3.44 4.25 15.21 15.21 0 0 1 -4.87 2.55 18.29 18.29 0 0 1 -5.62.87 18.61 18.61 0 0 1 -7.46-1.49 19.16 19.16 0 0 1 -6-4 16.88 16.88 0 0 1 -3.8-5.59z" fill="#fff"/><path d="m311.31 393h14.48q8.06 0 11.94 3.68t3.89 10.22q0 6.48-3.89 10.22t-11.94 3.75h-3.63v13.72h-10.85zm14.48 9.33h-3.63v9.21h3.63a5.83 5.83 0 0 0 4-1.22 4.31 4.31 0 0 0 1.37-3.42q0-4.53-5.37-4.53z" fill="#fff"/><path d="m347.38 393h15.38a19.6 19.6 0 0 1 8.89 1.78 11.86 11.86 0 0 1 5.23 4.9 16.11 16.11 0 0 1 -.14 14.68 12 12 0 0 1 -5.65 5l9.84 15.27h-12.69l-7.66-13.72h-2.35v13.72h-10.85zm14.48 9.74h-3.63v9.27h3.63a5.8 5.8 0 0 0 4-1.22 5 5 0 0 0 0-6.86 6 6 0 0 0 -4-1.15z" fill="#fff"/><path d="m384.73 393h10.91v27a7.23 7.23 0 0 0 1.37 4.61 6 6 0 0 0 8.44 0 7.23 7.23 0 0 0 1.37-4.61v-27h10.85v28a16.28 16.28 0 0 1 -2.24 9 13.22 13.22 0 0 1 -5.95 5.05 20.61 20.61 0 0 1 -8.25 1.6 20.83 20.83 0 0 1 -8.28-1.6 13.24 13.24 0 0 1 -6-5.05 16.37 16.37 0 0 1 -2.24-9zm2.46-10a4.94 4.94 0 0 1 1.63-3.89 5.86 5.86 0 0 1 7.74 0 5.52 5.52 0 0 1 0 7.75 5.8 5.8 0 0 1 -7.74 0 5 5 0 0 1 -1.63-3.8zm17.06 0a5 5 0 0 1 1.62-3.89 5.87 5.87 0 0 1 7.75 0 5.52 5.52 0 0 1 0 7.75 5.81 5.81 0 0 1 -7.75 0 5 5 0 0 1 -1.62-3.8z" fill="#fff"/><path d="m435.17 413.84a11.24 11.24 0 0 0 1.49 5.94 9.83 9.83 0 0 0 3.94 3.71 11.61 11.61 0 0 0 5.42 1.28 12.77 12.77 0 0 0 6.83-1.67 22.45 22.45 0 0 0 4.58-3.68v12.24a22.08 22.08 0 0 1 -5.12 2.91 18.92 18.92 0 0 1 -7.07 1.13 23.41 23.41 0 0 1 -11.49-2.7 19.77 19.77 0 0 1 -7.75-7.64 25.08 25.08 0 0 1 0-23 19.83 19.83 0 0 1 7.75-7.64 23.41 23.41 0 0 1 11.49-2.72 18.92 18.92 0 0 1 7.07 1.13 22.08 22.08 0 0 1 5.12 2.91v12.24a21 21 0 0 0 -4.58-3.71 13 13 0 0 0 -6.85-1.67 11.61 11.61 0 0 0 -5.42 1.28 9.83 9.83 0 0 0 -3.94 3.71 11.25 11.25 0 0 0 -1.47 5.95z" fill="#fff"/><path d="m464.87 393h10.85v14.73h15.43v-14.73h10.85v41.59h-10.85v-16.54h-15.43v16.58h-10.85z" fill="#fff"/><path d="m510.05 393h27.12v9.33h-16.72v6.12h15.6v9.09h-15.6v7.72h16.72v9.33h-27.12z" fill="#fff"/></g></svg>