<svg viewBox="0 0 390 255" xmlns="http://www.w3.org/2000/svg"><path d="m195 0a195 115.85 0 0 0 -195 115.84961 195 115.85 0 0 0 104.15234 102.42578c-16.700141 15.73608-36.941906 28.36072-59.15234 36.72461l64.64062-3.4707c15.5-.83 31.12016-1.67922 46.16016-5.19922 12.90598-3.01927 25.22166-8.04703 36.3457-14.71485a195 115.85 0 0 0 2.85352.08399 195 115.85 0 0 0 195-115.84961 195 115.85 0 0 0 -195-115.84961zm.35156 53.613281 17.63867 27.058594 17.51954-27.058594 6.36132 44.09961h-9.12109l-2.69922-23.160157-12.06055 19.259766-12.17968-19.259766-2.69922 23.160157h-9zm67.87305 1.259766c3.18 0 6.12031.539141 8.82031 1.619141 2.64 1.08 4.97953 2.640546 7.01953 4.560546s3.59969 4.260391 4.67969 6.900391 1.67969 5.579766 1.67969 8.759766-.59969 6.120312-1.67969 8.820312-2.63914 5.039531-4.61914 7.019531-4.31953 3.539141-7.01953 4.619141-5.64086 1.621094-8.88086 1.621094-6.23945-.541094-8.93945-1.621094-5.03953-2.639141-7.01954-4.619141c-1.98-1.98-3.54109-4.319531-4.62109-7.019531s-1.61914-5.640312-1.61914-8.820312.53969-6.119766 1.67969-8.759766c1.08-2.64 2.63969-4.980391 4.67969-6.900391 1.98-1.92 4.31953-3.480546 7.01953-4.560546s5.64031-1.619141 8.82031-1.619141zm-149.99609.839844h5.52148 3.29883 5.46094c4.44 0 8.28007.900078 11.58007 2.580078 3.3 1.74 5.88024 4.200312 7.74024 7.320312 1.8 3.12 2.75976 6.83961 2.75976 11.09961 0 4.32-.95976 8.040156-2.75976 11.160156-1.86 3.12-4.44024 5.579766-7.74024 7.259765-3.3 1.74-7.14007 2.580079-11.58007 2.580079h-5.46094-3.29883-5.52148zm43.00781 0h5.52148 2.87891 18.36133v7.320312h-18.36133v8.820313h17.16016v7.138672h-17.16016v11.40039h18.36133v7.320313h-18.36133-2.87891-5.52148zm106.98828 7.199218c-2.58 0-4.8593.600782-6.7793 1.800782-1.98 1.2-3.54109 2.819375-4.62109 4.859375-1.14 2.1-1.67969 4.500625-1.67969 7.140625 0 2.7.53969 5.100625 1.67969 7.140625 1.08 2.1 2.64109 3.719921 4.62109 4.919922 1.92 1.2 4.1993 1.740234 6.7793 1.740234 2.52 0 4.7993-.540234 6.7793-1.740234 1.92-1.200001 3.48109-2.819922 4.62109-4.919922 1.08-2.04 1.67969-4.440625 1.67969-7.140625 0-2.64-.53914-5.040625-1.61914-7.140625-1.08-2.04-2.64055-3.659375-4.56055-4.859375-1.98-1.2-4.26039-1.800782-6.90039-1.800782zm-141.17578.601563v26.398437h5.2207c2.46 0 4.6807-.418906 6.7207-1.378906 2.04-.9 3.65938-2.339765 4.85938-4.259765 1.2-1.920001 1.79883-4.440547 1.79883-7.560547 0-3.06-.59883-5.58-1.79883-7.5s-2.81938-3.360313-4.85938-4.320313c-2.04-.9-4.2607-1.378906-6.7207-1.378906zm63.76367 48.208988c1.26 0 2.34078.41976 3.30078 1.25976.9.84 1.38086 1.92164 1.38086 3.18164 0 1.32-.48086 2.33969-1.38086 3.17969-.96.84-2.04078 1.25977-3.30078 1.25977-1.32 0-2.39937-.41977-3.35938-1.25977-.96-.84-1.3789-1.85969-1.3789-3.17969 0-1.26.4189-2.34164 1.3789-3.18164s2.03938-1.25976 3.35938-1.25976zm15.42188 0c1.25999 0 2.33882.41976 3.29882 1.25976.9.84 1.38086 1.92164 1.38086 3.18164 0 1.32-.48086 2.33969-1.38086 3.17969-.96.84-2.03882 1.25977-3.29882 1.25977-1.32001 0-2.40079-.41977-3.30079-1.25977-.96-.84-1.38086-1.85969-1.38086-3.17969 0-1.26.42086-2.34164 1.38086-3.18164.9-.84 1.98079-1.25976 3.30079-1.25976zm-118.937505 12.48046c2.76 0 5.160625.48086 7.140625 1.38086 1.92.96 3.540781 2.09852 4.800781 3.47852 1.2 1.44 2.099219 2.82172 2.699219 4.26172l-6.599609 3.95898c-.9-1.62-1.921094-2.93953-3.121094-4.01953-1.2-1.02-2.758594-1.56055-4.558594-1.56055-1.68 0-3.061484.42063-4.021484 1.14063-.96.78-1.439453 1.79914-1.439453 3.11914 0 1.08.420859 2.03977 1.380859 2.75977.9.78 2.099063 1.44101 3.539063 2.04101s3.060234 1.19883 4.740234 1.79883c1.8.66 3.479609 1.50008 5.099609 2.58008s2.940938 2.40008 3.960938 4.08008 1.558593 3.77968 1.558593 6.17968c0 4.08-1.379531 7.20188-4.019531 9.42188-2.7 2.22-6.359062 3.29883-11.039062 3.29883-2.52 0-4.800938-.41891-6.960938-1.37891s-4.079218-2.28094-5.699219-3.96094c-1.679999-1.68-2.941249-3.72054-3.78125-6.06054l6.240235-4.32032c1.38 2.64 2.88 4.68055 4.5 6.06055 1.62 1.44 3.601406 2.09961 5.941406 2.09961 1.86 0 3.299766-.41977 4.259766-1.25977s1.5-2.10015 1.5-3.66015c0-1.32-.419766-2.45883-1.259766-3.29883s-1.980781-1.6207-3.300781-2.2207c-1.38-.6-2.879453-1.25938-4.439453-1.85938-1.08-.36-2.220469-.90055-3.480469-1.56055-1.32-.59999-2.520156-1.44039-3.660156-2.40039-1.2-.96-2.158907-2.15961-2.878906-3.59961-.780001-1.43999-1.140625-3.1196-1.140626-5.0996 0-2.28.598829-4.25946 1.798829-5.93946s2.820468-3.06148 4.980468-4.02148c2.1-.96 4.499766-1.43946 7.259766-1.43946zm156.121095 0c3.06 0 5.57914.42063 7.61914 1.14063 1.98.72 3.84008 1.79969 5.58008 3.17969v9.7207c-1.44-1.62-3.1793-3.00008-5.2793-4.08008s-4.62055-1.68164-7.56055-1.68164c-2.4 0-4.62015.60164-6.66015 1.68164s-3.71992 2.63969-4.91992 4.67969c-1.26 2.04-1.85938 4.43922-1.85938 7.19922s.59938 5.16117 1.85938 7.20117c1.2 2.04 2.87992 3.65828 4.91992 4.73828s4.26015 1.6211 6.66015 1.6211c2.94 0 5.46055-.53969 7.56055-1.67969 2.1-1.08 3.8393-2.46008 5.2793-4.08008v9.71875c-1.74 1.38-3.60008 2.46164-5.58008 3.18164-2.04.78-4.55914 1.13867-7.61914 1.13867-3.24 0-6.24-.47859-9-1.55859s-5.10008-2.58-7.08008-4.5c-2.04-1.92-3.59969-4.20039-4.67969-6.90039-1.14-2.64-1.68164-5.64086-1.68164-8.88086s.54164-6.17891 1.68164-8.87891c1.08-2.64 2.63969-4.98039 4.67969-6.90039 1.98-1.92 4.32008-3.35945 7.08008-4.43945s5.76-1.6211 9-1.6211zm-133.94727.83985h5.28125 3.35938 4.98047c4.92 0 8.75953 1.19961 11.51953 3.59961s4.14062 5.69984 4.14062 9.83984-1.38062 7.38125-4.14062 9.78125-6.59953 3.53906-11.51953 3.53906h-4.98047v15.24024h-8.64063zm35.97657 0h5.28125 3.35937 5.51953c3.3 0 6.12094.59969 8.46094 1.67969 2.34 1.14 4.14039 2.70023 5.40039 4.74023 1.2 2.04 1.85937 4.37953 1.85937 7.01953 0 3-.77984 5.52164-2.33984 7.68164s-3.72101 3.65914-6.54101 4.61914l11.40039 16.25977h-10.25977l-9.83984-15.24024h-3.66016v15.24024h-8.64062zm36.96679 0h8.63867v27.66015c0 2.34001.60133 4.25922 1.86133 5.69922 1.26 1.5 3.12008 2.22071 5.58008 2.22071s4.32008-.72071 5.58008-2.22071c1.26-1.44 1.91992-3.35921 1.91992-5.69922v-27.66015h8.63867v28.20117c0 3.3-.71961 6.05984-2.09961 8.33984-1.44 2.28-3.35976 3.95961-5.75976 5.09961-2.46 1.2-5.2193 1.74024-8.2793 1.74024-3.12 0-5.88125-.54024-8.28125-1.74024-2.4-1.14-4.31922-2.81961-5.69922-5.09961-1.44-2.28-2.09961-5.03984-2.09961-8.33984zm82.68164 0h8.64063v15.7207h19.56055v-15.7207h8.63867v42h-8.63867v-18.41992h-19.56055v18.41992h-8.64063zm45.82032 0h5.52148 2.87891 18.35937v7.32031h-18.35937v8.82031h17.16015v7.14063h-17.16015v11.39844h18.35937v7.32031h-18.35937-2.87891-5.52148zm-192.80469 7.32031v12.11914h4.98047c2.22 0 4.01984-.48 5.33984-1.5s1.98047-2.52 1.98047-4.5-.66047-3.47859-1.98047-4.55859c-1.32-1.02-3.11984-1.56055-5.33984-1.56055zm35.97656.06055v12.53906h4.98047c2.22 0 4.01984-.53914 5.33984-1.61914s1.98047-2.64109 1.98047-4.62109-.66047-3.53914-1.98047-4.61914-3.11984-1.67969-5.33984-1.67969z" fill="#1fa64a"/></svg>