<?xml version="1.0" encoding="UTF-8" standalone="no"?>
<svg
   xmlns:dc="http://purl.org/dc/elements/1.1/"
   xmlns:cc="http://creativecommons.org/ns#"
   xmlns:rdf="http://www.w3.org/1999/02/22-rdf-syntax-ns#"
   xmlns:svg="http://www.w3.org/2000/svg"
   xmlns="http://www.w3.org/2000/svg"
   xmlns:sodipodi="http://sodipodi.sourceforge.net/DTD/sodipodi-0.dtd"
   xmlns:inkscape="http://www.inkscape.org/namespaces/inkscape"
   id="Ebene_1"
   data-name="Ebene 1"
   viewBox="0 0 661 262"
   version="1.1"
   inkscape:version="0.91 r13725"
   sodipodi:docname="Forderungen.svg">
  <metadata
     id="metadata37">
    <rdf:RDF>
      <cc:Work
         rdf:about="">
        <dc:format>image/svg+xml</dc:format>
        <dc:type
           rdf:resource="http://purl.org/dc/dcmitype/StillImage" />
        <dc:title></dc:title>
      </cc:Work>
    </rdf:RDF>
  </metadata>
  <sodipodi:namedview
     pagecolor="#ffffff"
     bordercolor="#666666"
     borderopacity="1"
     objecttolerance="10"
     gridtolerance="10"
     guidetolerance="10"
     inkscape:pageopacity="0"
     inkscape:pageshadow="2"
     inkscape:window-width="1920"
     inkscape:window-height="1017"
     id="namedview35"
     showgrid="false"
     showguides="true"
     inkscape:guide-bbox="true"
     inkscape:zoom="1.4976543"
     inkscape:cx="317.39063"
     inkscape:cy="78.233789"
     inkscape:window-x="-8"
     inkscape:window-y="-8"
     inkscape:window-maximized="1"
     inkscape:current-layer="Ebene_1">
    <sodipodi:guide
       position="698.42553,359.89614"
       orientation="0,1"
       id="guide3394" />
  </sodipodi:namedview>
  <defs
     id="defs3">
    <style
       id="style5">.cls-1,.cls-3{fill:#fff;}.cls-2{fill:none;}.cls-2,.cls-3{stroke:#fff;stroke-miterlimit:10;stroke-width:2px;}.cls-4,.cls-5{fill:#91d3ed;}.cls-5{font-size:72.16px;font-family:Jost-Heavy, &quot;Jost*&quot;;font-weight:800;}</style>
  </defs>
  <path
     style="fill:#ffffff"
     d="M 563.57227 2.0996094 C 364.35397 26.632314 226.94511 42.701997 51.927734 62.507812 L 51.927734 62.587891 C 37.443044 65.923031 26.41368 93.733981 26.398438 126.96094 C 26.398528 162.73221 39.104364 191.73003 54.777344 191.72852 C 297.45108 224.2214 403.66311 238.72499 563.57227 261.17188 C 587.3575 261.16987 606.63889 203.17483 606.63867 131.63477 C 606.63853 60.09546 587.35724 2.1011841 563.57227 2.0996094 z M 365.71094 104.39648 L 395.53125 131.875 L 395.53125 106.49609 L 403.87109 106.49609 L 403.87109 150.5957 L 374.11133 123.11523 L 374.11133 148.49609 L 365.71094 148.49609 L 365.71094 104.39648 z M 496.375 104.39648 L 526.19531 131.875 L 526.19531 106.49609 L 534.53516 106.49609 L 534.53516 150.5957 L 504.77539 123.11523 L 504.77539 148.49609 L 496.375 148.49609 L 496.375 104.39648 z M 143.40234 105.65625 C 146.58234 105.65625 149.52266 106.19539 152.22266 107.27539 C 154.86266 108.35539 157.20219 109.91594 159.24219 111.83594 C 161.28219 113.75594 162.84188 116.09633 163.92188 118.73633 C 165.00188 121.37633 165.60156 124.31609 165.60156 127.49609 C 165.60156 130.67609 165.00188 133.61641 163.92188 136.31641 C 162.84188 139.01641 161.28273 141.35594 159.30273 143.33594 C 157.32273 145.31594 154.98125 146.87508 152.28125 147.95508 C 149.58125 149.03508 146.64234 149.57617 143.40234 149.57617 C 140.16234 149.57617 137.16094 149.03508 134.46094 147.95508 C 131.76094 146.87508 129.42141 145.31594 127.44141 143.33594 C 125.46141 141.35594 123.90227 139.01641 122.82227 136.31641 C 121.74227 133.61641 121.20117 130.67609 121.20117 127.49609 C 121.20117 124.31609 121.74281 121.37633 122.88281 118.73633 C 123.96281 116.09633 125.5225 113.75594 127.5625 111.83594 C 129.5425 109.91594 131.88203 108.35539 134.58203 107.27539 C 137.28203 106.19539 140.22234 105.65625 143.40234 105.65625 z M 433.21875 105.65625 C 437.47875 105.65625 441.13781 106.55492 444.25781 108.29492 C 447.31781 110.03492 449.83781 112.37586 451.75781 115.25586 L 444.37695 119.57617 C 443.29695 117.77617 441.79805 116.33672 439.99805 115.13672 C 438.19805 113.99672 435.91875 113.39648 433.21875 113.39648 C 430.69875 113.39648 428.35836 113.99672 426.31836 115.13672 C 424.21836 116.27672 422.53789 117.89609 421.33789 119.99609 C 420.13789 122.09609 419.53711 124.61609 419.53711 127.49609 C 419.53711 130.43609 420.13789 132.95523 421.33789 135.11523 C 422.53789 137.27523 424.15727 138.95625 426.19727 140.15625 C 428.23727 141.35625 430.57875 141.89648 433.21875 141.89648 C 436.63875 141.89648 439.33781 141.05641 441.25781 139.31641 C 443.17781 137.63641 444.49734 135.47648 445.27734 132.89648 L 433.33789 132.89648 L 433.33789 126.05664 L 454.09766 126.05664 C 454.21766 129.29664 453.79703 132.29523 452.95703 135.11523 C 452.05703 137.99523 450.7375 140.45523 448.9375 142.61523 C 447.1375 144.77523 444.85875 146.5168 442.21875 147.7168 C 439.51875 148.9768 436.45852 149.57617 432.97852 149.57617 C 428.59852 149.57617 424.69789 148.67641 421.33789 146.81641 C 417.97789 144.95641 415.33797 142.37563 413.41797 139.01562 C 411.49797 135.71562 410.53711 131.87609 410.53711 127.49609 C 410.53711 123.17609 411.49852 119.33516 413.47852 116.03516 C 415.39852 112.79516 418.09758 110.21602 421.51758 108.41602 C 424.93758 106.61602 428.83875 105.65625 433.21875 105.65625 z M 91.375 106.49609 L 96.894531 106.49609 L 99.775391 106.49609 L 115.73438 106.49609 L 115.73438 114.05664 L 99.775391 114.05664 L 99.775391 123.41602 L 115.13477 123.41602 L 115.13477 130.61523 L 99.775391 130.61523 L 99.775391 148.49609 L 91.375 148.49609 L 91.375 106.49609 z M 172.23438 106.49609 L 177.51562 106.49609 L 180.875 106.49609 L 186.39453 106.49609 C 189.69453 106.49609 192.51547 107.09578 194.85547 108.17578 C 197.19547 109.31578 198.99391 110.87602 200.25391 112.91602 C 201.45391 114.95602 202.11523 117.29555 202.11523 119.93555 C 202.11523 122.93555 201.33539 125.45523 199.77539 127.61523 C 198.21539 129.77523 196.05437 131.27633 193.23438 132.23633 L 204.63477 148.49609 L 194.375 148.49609 L 184.53516 133.25586 L 180.875 133.25586 L 180.875 148.49609 L 172.23438 148.49609 L 172.23438 106.49609 z M 209.5 106.49609 L 215.01953 106.49609 L 218.32031 106.49609 L 223.78125 106.49609 C 228.22125 106.49609 232.05938 107.39617 235.35938 109.07617 C 238.65937 110.81617 241.23961 113.27648 243.09961 116.39648 C 244.89961 119.51648 245.85938 123.23609 245.85938 127.49609 C 245.85938 131.81609 244.89961 135.53625 243.09961 138.65625 C 241.23961 141.77625 238.65938 144.23602 235.35938 145.91602 C 232.05937 147.65602 228.22125 148.49609 223.78125 148.49609 L 218.32031 148.49609 L 215.01953 148.49609 L 209.5 148.49609 L 209.5 106.49609 z M 252.50781 106.49609 L 258.02734 106.49609 L 260.9082 106.49609 L 279.26758 106.49609 L 279.26758 113.81641 L 260.9082 113.81641 L 260.9082 122.63672 L 278.06836 122.63672 L 278.06836 129.77539 L 260.9082 129.77539 L 260.9082 141.17578 L 279.26758 141.17578 L 279.26758 148.49609 L 260.9082 148.49609 L 258.02734 148.49609 L 252.50781 148.49609 L 252.50781 106.49609 z M 287.78125 106.49609 L 293.0625 106.49609 L 296.42188 106.49609 L 301.94141 106.49609 C 305.24141 106.49609 308.06234 107.09578 310.40234 108.17578 C 312.74234 109.31578 314.54078 110.87602 315.80078 112.91602 C 317.00078 114.95602 317.66211 117.29555 317.66211 119.93555 C 317.66211 122.93555 316.88227 125.45523 315.32227 127.61523 C 313.76227 129.77523 311.60125 131.27633 308.78125 132.23633 L 320.18164 148.49609 L 309.92188 148.49609 L 300.08203 133.25586 L 296.42188 133.25586 L 296.42188 148.49609 L 287.78125 148.49609 L 287.78125 106.49609 z M 324.6875 106.49609 L 333.32812 106.49609 L 333.32812 134.2168 C 333.32812 136.5568 333.92805 138.47602 335.24805 139.91602 C 336.50805 141.35602 338.36812 142.07617 340.82812 142.07617 C 343.28813 142.07617 345.14625 141.35602 346.40625 139.91602 C 347.66625 138.47602 348.32812 136.5568 348.32812 134.2168 L 348.32812 106.49609 L 356.9668 106.49609 L 356.9668 134.69531 C 356.9668 137.99531 356.24719 140.75516 354.86719 143.03516 C 353.42719 145.31516 351.50742 147.05531 349.10742 148.19531 C 346.64742 149.39531 343.88812 149.93555 340.82812 149.93555 C 337.70813 149.93555 334.94687 149.39531 332.54688 148.19531 C 330.08688 147.05531 328.16711 145.31516 326.78711 143.03516 C 325.34711 140.75516 324.6875 137.99531 324.6875 134.69531 L 324.6875 106.49609 z M 461.10156 106.49609 L 466.62109 106.49609 L 469.50195 106.49609 L 487.86133 106.49609 L 487.86133 113.81641 L 469.50195 113.81641 L 469.50195 122.63672 L 486.66211 122.63672 L 486.66211 129.77539 L 469.50195 129.77539 L 469.50195 141.17578 L 487.86133 141.17578 L 487.86133 148.49609 L 469.50195 148.49609 L 466.62109 148.49609 L 461.10156 148.49609 L 461.10156 106.49609 z M 143.40234 113.69531 C 140.82234 113.69531 138.54109 114.29609 136.62109 115.49609 C 134.64109 116.69609 133.08195 118.31547 132.00195 120.35547 C 130.86195 122.45547 130.32227 124.85609 130.32227 127.49609 C 130.32227 130.19609 130.86195 132.59672 132.00195 134.63672 C 133.08195 136.73672 134.64109 138.35664 136.62109 139.55664 C 138.54109 140.75664 140.82234 141.29492 143.40234 141.29492 C 145.92234 141.29492 148.20164 140.75664 150.18164 139.55664 C 152.10164 138.35664 153.66273 136.73672 154.80273 134.63672 C 155.88273 132.59672 156.48242 130.19609 156.48242 127.49609 C 156.48242 124.85609 155.94133 122.45547 154.86133 120.35547 C 153.78133 118.31547 152.22273 116.69609 150.30273 115.49609 C 148.32273 114.29609 146.04234 113.69531 143.40234 113.69531 z M 180.875 113.875 L 180.875 126.41602 L 185.85547 126.41602 C 188.07547 126.41602 189.87531 125.87492 191.19531 124.79492 C 192.51531 123.71492 193.17383 122.15578 193.17383 120.17578 C 193.17383 118.19578 192.51531 116.63664 191.19531 115.55664 C 189.87531 114.47664 188.07547 113.875 185.85547 113.875 L 180.875 113.875 z M 296.42188 113.875 L 296.42188 126.41602 L 301.40234 126.41602 C 303.62234 126.41602 305.42219 125.87492 306.74219 124.79492 C 308.06219 123.71492 308.7207 122.15578 308.7207 120.17578 C 308.7207 118.19578 308.06219 116.63664 306.74219 115.55664 C 305.42219 114.47664 303.62234 113.875 301.40234 113.875 L 296.42188 113.875 z M 218.32031 114.29492 L 218.32031 140.69531 L 223.54102 140.69531 C 226.00102 140.69531 228.21977 140.27641 230.25977 139.31641 C 232.29977 138.41641 233.92109 136.97664 235.12109 135.05664 C 236.32109 133.13664 236.91992 130.61609 236.91992 127.49609 C 236.91992 124.43609 236.32109 121.91609 235.12109 119.99609 C 233.92109 118.07609 232.29977 116.63578 230.25977 115.67578 C 228.21977 114.77578 226.00102 114.29492 223.54102 114.29492 L 218.32031 114.29492 z "
     id="path3376" />
</svg>
