<svg id="Ebene_1" data-name="Ebene 1" xmlns="http://www.w3.org/2000/svg" viewBox="0 0 1038 387"><defs><style>.cls-1{fill:#90d3ed;}</style></defs><path class="cls-1" d="M493.24,1219.51a31.75,31.75,0,0,0-13.05-2.61h-10v50.8h10a31.75,31.75,0,0,0,13.05-2.61,21,21,0,0,0,9.39-8.23q3.54-5.62,3.54-14.56t-3.54-14.56A21,21,0,0,0,493.24,1219.51Z" transform="translate(-53.21 -1049.08)"/><path class="cls-1" d="M641,1219.22q-3.83-3.13-10.32-3.14H621v24.13h9.63q6.5,0,10.32-3.19a10.91,10.91,0,0,0,3.83-8.87Q644.79,1222.34,641,1219.22Z" transform="translate(-53.21 -1049.08)"/><path class="cls-1" d="M417.78,1219.22q-3.82-3.13-10.32-3.14h-9.63v24.13h9.63q6.5,0,10.32-3.19a10.91,10.91,0,0,0,3.83-8.87Q421.61,1222.34,417.78,1219.22Z" transform="translate(-53.21 -1049.08)"/><path class="cls-1" d="M338.67,1219a27.4,27.4,0,0,0-26.51,0,23.66,23.66,0,0,0-8.93,9.46,31.44,31.44,0,0,0,0,27.6,23.6,23.6,0,0,0,8.93,9.46,27.16,27.16,0,0,0,26.39,0,23.75,23.75,0,0,0,8.88-9.46,29.14,29.14,0,0,0,3.19-13.8,29.48,29.48,0,0,0-3.14-13.8A23.31,23.31,0,0,0,338.67,1219Z" transform="translate(-53.21 -1049.08)"/><path class="cls-1" d="M897.71,1049.08h-651c-106.86,0-193.5,86.63-193.5,193.5h0c0,106.86,86.64,193.5,193.5,193.5h651c106.87,0,193.5-86.64,193.5-193.5h0C1091.21,1135.71,1004.58,1049.08,897.71,1049.08ZM271.85,1216.32H241v18.09h29.69v13.92H241v34.57H224.76v-81.2h47.09Zm93.21,43a40.17,40.17,0,0,1-22.51,22.51,48.1,48.1,0,0,1-34.45,0,40.19,40.19,0,0,1-22.5-22.51,44.53,44.53,0,0,1-3.19-17,43.24,43.24,0,0,1,3.25-17,39.46,39.46,0,0,1,9.1-13.34,42.4,42.4,0,0,1,13.63-8.76,47.7,47.7,0,0,1,34,0A42.4,42.4,0,0,1,356,1212a38.77,38.77,0,0,1,9.05,13.34,44,44,0,0,1,3.19,17A44.53,44.53,0,0,1,365.06,1259.29Zm58.87,23.61L405,1253.44h-7.19v29.46H381.12v-81.2H408.5q9.63,0,16.41,3.31a24.46,24.46,0,0,1,10.39,9.1,25.29,25.29,0,0,1,3.59,13.57,24.83,24.83,0,0,1-4.41,14.79,24.58,24.58,0,0,1-12.76,9l22,31.44ZM518,1263.76a36.24,36.24,0,0,1-14.9,14.15q-9.57,5-22.45,5H453v-81.2h27.61q12.87,0,22.45,5a36.35,36.35,0,0,1,14.9,14.09q5.34,9.1,5.34,21.52T518,1263.76Zm70-47.91h-35.5v17.05h33.18v13.81H552.45v22H588v14.15H536.22v-81.2H588Zm59.16,67.05-18.91-29.46H621v29.46h-16.7v-81.2h27.37q9.63,0,16.42,3.31a24.49,24.49,0,0,1,10.38,9.1,25.29,25.29,0,0,1,3.59,13.57,24.9,24.9,0,0,1-4.4,14.79,24.62,24.62,0,0,1-12.76,9l22,31.44Zm90.83-26.68q0,9.51-4.06,16.12a25.77,25.77,0,0,1-11.14,10,39.68,39.68,0,0,1-32,0,25.84,25.84,0,0,1-11.08-10q-4.05-6.6-4.06-16.12V1201.7h16.59v53.59a16,16,0,0,0,3.71,11q3.72,4.24,10.79,4.24t10.85-4.24q3.64-4.23,3.65-11V1201.7h16.71ZM828.65,1287l-57.54-54.17v50.11H754.87v-85.26l57.65,54.17V1201.7h16.13ZM923.54,1257a41.73,41.73,0,0,1-7.78,14.5,36.59,36.59,0,0,1-13,9.86,42.07,42.07,0,0,1-17.86,3.6,45.78,45.78,0,0,1-22.45-5.4,39.22,39.22,0,0,1-15.37-15,43.7,43.7,0,0,1-5.57-22.27,42.4,42.4,0,0,1,5.69-22.16,39.38,39.38,0,0,1,15.6-14.79,47.36,47.36,0,0,1,22.56-5.27q12.4,0,21.34,5a41.52,41.52,0,0,1,14.5,13.52L907,1227a26.48,26.48,0,0,0-8.41-8.64q-5.28-3.42-13.17-3.43a27.34,27.34,0,0,0-13.34,3.31,24.48,24.48,0,0,0-9.57,9.45,28.83,28.83,0,0,0-3.54,14.62A29.82,29.82,0,0,0,862.4,1257a24.71,24.71,0,0,0,9.46,9.69,26.68,26.68,0,0,0,13.51,3.42q10,0,15.72-5.05a24.61,24.61,0,0,0,7.71-12.35H885.6v-13.22h40.14A52.5,52.5,0,0,1,923.54,1257Z" transform="translate(-53.21 -1049.08)"/></svg>