<svg id="Ebene_1" data-name="Ebene 1" xmlns="http://www.w3.org/2000/svg" viewBox="0 0 661 262"><defs><style>.cls-1,.cls-3{fill:#fff;}.cls-2{fill:none;}.cls-2,.cls-3{stroke:#fff;stroke-miterlimit:10;stroke-width:2px;}.cls-4,.cls-5{fill:#91d3ed;}.cls-5{font-size:72.16px;font-family:Jost-Heavy, "Jost*";font-weight:800;}</style></defs><ellipse class="cls-1" cx="22.5" cy="131" rx="22.5" ry="60"/><line class="cls-2" x1="20" y1="86" x2="610" y2="1"/><line class="cls-2" x1="25" y1="181" x2="615" y2="261"/><ellipse class="cls-3" cx="612.5" cy="131" rx="47.5" ry="130"/><path class="cls-4" d="M528.61,331.33a1.5,1.5,0,0,0,0-3,1.5,1.5,0,0,0,0,3Z" transform="translate(-114.47 -183.22)"/><path class="cls-1" d="M683,237.14,551.18,256.38,419.33,275.63l-74,10.81c-5.15.75-8.14,6.91-7.52,11.52.72,5.36,5,8.75,10.31,9.1A117.8,117.8,0,0,0,412,292.79c4.59-2.51,6.25-8.47,4.29-13.12a10.5,10.5,0,0,0-12.38-6.08A855,855,0,0,1,314.32,294q-11.69,2-23.42,3.7c-1.63.24-3.26.47-4.9.69-.22,0-3.46.47-1.12.16l-2.94.39c-3.92.5-7.84,1-11.77,1.44q-22.58,2.61-45.27,4-26.13,1.6-52.34,1.62a10.52,10.52,0,0,0-2.79,20.63c19.76,5.81,39.91-1.17,59.17-5.65q14-3.27,28.16-5.82,7.08-1.29,14.19-2.39,3.42-.52,6.86-1l3.93-.55c-.18,0-1.58.21-.33.05l2.46-.32q16.23-2.07,32.57-3.22c5.46-.39,10.76-4.55,10.5-10.5-.24-5.35-4.63-10.91-10.5-10.5-19.57,1.39-39.08,3.74-58.42,7q-14.18,2.4-28.23,5.48c-9.13,2-18.14,4.46-27.25,6.5-2.69.6-5.39,1.14-8.11,1.58l-1.44.22c1.55-.23.3-.05-.55,0-1.27.13-2.54.23-3.81.29a54.66,54.66,0,0,1-7.57-.12q-.71-.06-1.41-.15c2.15.26,0-.05-.48-.14-1.4-.27-2.78-.63-4.16-1l-2.79,20.62a868.73,868.73,0,0,0,186.12-20.38q25.57-5.62,50.77-12.84l-8.09-19.19c-2.13,1.16-4.28,2.26-6.48,3.28l-1.65.75c-.91.41-.92.37,0,0-1.12.44-2.24.9-3.38,1.32a104.89,104.89,0,0,1-14.35,4.21c-2.37.52-4.75.9-7.14,1.32-1.6.28,1.72-.18.1,0l-1.81.21c-1.2.12-2.4.23-3.61.32a108.25,108.25,0,0,1-15,0l2.79,20.63,131.85-19.25L614.57,268.2l74-10.81c5.45-.8,8.93-8,7.33-12.92-1.93-6-7.07-8.18-12.92-7.33Z" transform="translate(-114.47 -183.22)"/><path class="cls-1" d="M234.73,332.6c34.74,1.48,69.49,2.95,104.25,4.17,34.6,1.22,69.21,2.17,103.84,2.62s69.2.39,103.8-.43q26-.63,52.08-1.85,13.13-.63,26.25-1.44c6.92-.42,13.87-1.18,20.81-.9,1.41.06,2.81.19,4.22.31,1.84.16-2.64-.47-.13,0,.77.14,1.54.27,2.31.44a34.7,34.7,0,0,1,3.59,1c.37.13,2.63,1,.82.27s.51.3.94.55,1,.65,1.58,1c1.45.89-1.8-1.68-.27-.18.43.42.85.86,1.28,1.29.69.69.13,1-.66-.89a8.44,8.44,0,0,0,.59.88c.28.45,1.14,2.37.48.69s.23.8.37,1.36c.1.4.15.82.26,1.21.37,1.47,0-1.84-.07-.33,0,1.11.11,2.23.12,3.34,0,7.72.49,15.35,3.09,22.7a57.73,57.73,0,0,0,21.21,28.69l8.1-19.19L562.91,354.5l-36.7-6.57c-5.39-1-11.58,1.46-12.92,7.34a10.71,10.71,0,0,0,7.34,12.91l25.56,7.63,5.58-20.24L443.61,339.26,335.89,323l-60.84-9.17c-2.9-.44-5.46-.48-8.09,1.06a10.67,10.67,0,0,0-4.82,6.27c-1.14,5,1.52,12,7.33,12.92l108.16,16.3,107.71,16.23,60.85,9.17c2.89.44,5.46.49,8.09-1.05a10.51,10.51,0,0,0-2.51-19.19l-25.56-7.64-5.58,20.25,130.68,23.37L688,398.12c5.21.93,10.24-1,12.39-6.08s-.06-9.91-4.3-13.12c.21.16,1.85,1.52.46.34l-.8-.68q-.93-.79-1.83-1.65a46.73,46.73,0,0,1-3.59-3.86,6.65,6.65,0,0,0-.67-.82c1.46,1.24.84,1.15.36.45s-.95-1.34-1.4-2A49.27,49.27,0,0,1,686,366.1c-.37-.73-.7-1.48-1.06-2.22-.51-1,.36.88.36.89a9,9,0,0,0-.51-1.32,49.54,49.54,0,0,1-1.56-5c-.2-.8-.38-1.6-.54-2.41-.08-.42-.5-3.14-.27-1.38s-.08-1.05-.11-1.4c-.07-1-.1-2-.12-3-.06-4.59.07-9.06-.86-13.6a26.71,26.71,0,0,0-6-11.72c-4.21-5-10.73-8.09-17-9.57a71.33,71.33,0,0,0-19.44-1.59c-8.27.35-16.52,1.05-24.78,1.51q-26,1.45-52.07,2.23c-34.89,1.07-69.79,1.31-104.69,1s-69.84-1.16-104.75-2.31-69.82-2.6-104.72-4.08l-13.13-.56c-5.5-.23-10.75,5-10.5,10.5a10.72,10.72,0,0,0,10.5,10.5Z" transform="translate(-114.47 -183.22)"/><path class="cls-1" d="M342.82,303.88a10.82,10.82,0,0,0,7.43-3.08,10.5,10.5,0,0,0-7.43-17.92A10.83,10.83,0,0,0,335.4,286a10.5,10.5,0,0,0,7.42,17.93Z" transform="translate(-114.47 -183.22)"/><path class="cls-1" d="M371.38,301.91a10.82,10.82,0,0,0,7.43-3.08,10.5,10.5,0,0,0-7.43-17.92A10.83,10.83,0,0,0,364,284a10.5,10.5,0,0,0,7.42,17.93Z" transform="translate(-114.47 -183.22)"/><path class="cls-1" d="M437.37,291.07a10.83,10.83,0,0,0,7.42-3.07,10.5,10.5,0,0,0-7.42-17.93,10.87,10.87,0,0,0-7.43,3.08,10.5,10.5,0,0,0,7.43,17.92Z" transform="translate(-114.47 -183.22)"/><path class="cls-1" d="M474.79,285.17a10.88,10.88,0,0,0,7.43-3.08,10.5,10.5,0,0,0-7.43-17.92,10.83,10.83,0,0,0-7.42,3.07,10.5,10.5,0,0,0,7.42,17.93Z" transform="translate(-114.47 -183.22)"/><path class="cls-1" d="M479.61,285q27.54-5.91,55.4-10.16,8-1.23,16-2.3l-2.79.38Q570.07,270,592,268.11a11.22,11.22,0,0,0,7.43-3.07,10.51,10.51,0,0,0,0-14.85c-2-1.79-4.68-3.32-7.43-3.08-31,2.7-61.94,6.89-92.56,12.58q-12.76,2.37-25.46,5.1A10.5,10.5,0,1,0,479.61,285Z" transform="translate(-114.47 -183.22)"/><path class="cls-1" d="M287.67,343.27a10.86,10.86,0,0,0,7.43-3.07,10.51,10.51,0,0,0-7.43-17.93,10.5,10.5,0,0,0,0,21Z" transform="translate(-114.47 -183.22)"/><text class="cls-5" transform="translate(30 154.3) scale(0.77 1)">F O R D E R U N G E N</text></svg>