<svg id="Ebene_1" data-name="Ebene 1" xmlns="http://www.w3.org/2000/svg" viewBox="0 0 490.5 476">
    <path fill="#1da64a"
        d="M868.33,144.5H497.83a60,60,0,0,0-60,60v356a60,60,0,0,0,60,60h370.5a60,60,0,0,0,60-60v-356A60,60,0,0,0,868.33,144.5ZM591.5,575A29.36,29.36,0,0,1,586,585.25a26.08,26.08,0,0,1-9.19,7,29.82,29.82,0,0,1-12.63,2.54A32.36,32.36,0,0,1,548.33,591a27.81,27.81,0,0,1-10.87-10.62,30.94,30.94,0,0,1-3.93-15.75,30,30,0,0,1,4-15.66,27.88,27.88,0,0,1,11-10.45,33.41,33.41,0,0,1,15.95-3.73,30.18,30.18,0,0,1,15.09,3.56,29.38,29.38,0,0,1,10.25,9.56l-10.09,5.9a18.53,18.53,0,0,0-5.94-6.11,16.81,16.81,0,0,0-9.31-2.42,19.28,19.28,0,0,0-9.43,2.34,17.29,17.29,0,0,0-6.76,6.68,20.34,20.34,0,0,0-2.5,10.33A21.1,21.1,0,0,0,548.29,575a17.45,17.45,0,0,0,6.68,6.84,18.78,18.78,0,0,0,9.55,2.42q7.05,0,11.11-3.56a17.44,17.44,0,0,0,5.46-8.74h-16.4v-9.34h28.37A37,37,0,0,1,591.5,575Zm23,18.28h-12v-57.4h12Zm49.36-46.74H648.41v46.74H636.6V546.54H621.18V535.88H663.9Zm57,46.74h-11.8V568.11H682.35v25.17h-11.8v-57.4h11.8v21.49h26.74V535.88h11.8Zm55.93-18.86a21.39,21.39,0,0,1-2.87,11.4,18.21,18.21,0,0,1-7.87,7,26,26,0,0,1-11.32,2.38,25.73,25.73,0,0,1-11.28-2.38,18.28,18.28,0,0,1-7.83-7,21.39,21.39,0,0,1-2.87-11.4V535.88h11.73v37.89a11.33,11.33,0,0,0,2.62,7.75q2.63,3,7.63,3c3.39,0,5.94-1,7.67-3a11.46,11.46,0,0,0,2.58-7.75V535.88h11.81Zm51.08,11.77a15.64,15.64,0,0,1-7.54,5.37,33.44,33.44,0,0,1-11.24,1.72H788.79v-57.4H808a29,29,0,0,1,10,1.6,15.09,15.09,0,0,1,6.85,4.8,12.77,12.77,0,0,1,2.5,8.12,11.6,11.6,0,0,1-2.3,7.26,14.87,14.87,0,0,1-6.23,4.63,19.14,19.14,0,0,1,8.45,5.12,13.26,13.26,0,0,1,3.36,9.47A15.16,15.16,0,0,1,827.9,586.19Zm-90.74-82.08c-8.64,1.52-11.35-3.9-11.35-8.48V449.19c0-15.76-5.6-26.1-11.7-31.36,37.8-4.24,77.46-18.47,77.46-83.22,0-18.82-6.44-33.9-17.46-45.94,1.7-4.23,7.63-21.86-1.69-44.75,0,0-14.24-4.57-46.61,17.29a163.41,163.41,0,0,0-84.75,0c-32.38-21.86-46.62-17.29-46.62-17.29-9.32,22.89-3.39,40.52-1.69,44.75-11,12-17.46,27.12-17.46,45.94,0,64.58,39.49,79.15,77.12,83.39-4.74,4.24-9.15,11.7-10.68,22.71-9.66,4.07-34.57,11.7-49.32-14.06,0,0-9-16.28-25.93-17.46,0,0-16.62-.34-1.19,10.17,0,0,11,5.25,18.81,24.91,0,0,10,32.89,57,22.72v28.64c0,4.58-2.72,9.83-11.19,8.48a169.65,169.65,0,0,1,30.38-329c103.87-13.8,192.68,66.77,192.68,168C852.93,418,804.45,481.39,737.16,504.11Z"
        transform="translate(-437.83 -144.5)" />
    <path fill="#1da64a"
        d="M815.52,569.3a13.28,13.28,0,0,0-7.38-1.93H800.6v16.57h7.54a12.69,12.69,0,0,0,7.38-2.05q3-2.05,3-6.48Q818.47,571.23,815.52,569.3Z"
        transform="translate(-437.83 -144.5)" />
    <path fill="#1da64a"
        d="M813,557a6.2,6.2,0,0,0,2.21-5,6,6,0,0,0-2.21-5,9.47,9.47,0,0,0-6.07-1.77H800.6v13.61h6.31A9.2,9.2,0,0,0,813,557Z"
        transform="translate(-437.83 -144.5)" />
</svg>