<svg viewBox="0 0 778.58 280.85" xmlns="http://www.w3.org/2000/svg"><g fill="#fff"><path d="m578.44 487.55a18 18 0 0 0 -3.68-11.08l-20.28-26a17.43 17.43 0 0 0 -13.74-6.47 16.88 16.88 0 0 0 -9 2.51l-19.74 12.3a18 18 0 0 1 -9.1 2.19 16.58 16.58 0 0 1 -7-1.37l-19.36-9.38a23.33 23.33 0 0 0 -10.11-2.13 25.14 25.14 0 0 0 -14.22 4.1l-2.21 1.61-7.71-3.83a28.94 28.94 0 0 0 -12.62-2.59 30.15 30.15 0 0 0 -11.57 2.12l-13.2 5.63a27.11 27.11 0 0 1 -17.9 0l-13.2-5.63a19.15 19.15 0 0 0 -7.54-1.47 22.87 22.87 0 0 0 -8.57 1.68 19.52 19.52 0 0 0 -7.23 5l-24 26.92a15.61 15.61 0 0 0 1.48 22.34l22.43 19.14-10.64 11.09a15.86 15.86 0 0 0 .54 22.45l2.16 2a15.81 15.81 0 0 0 7 3.81 15.66 15.66 0 0 0 2.95 19l2.17 2.06a16.07 16.07 0 0 0 17.23 3.12 15.69 15.69 0 0 0 4.41 7.68l2.16 2.06a16 16 0 0 0 19.85 1.7 15.77 15.77 0 0 0 4.15 6.82l2.17 2.06a16 16 0 0 0 22.55-.54l9.4-9.82 12.78 11.83a16 16 0 0 0 22.54-.81l2-2.19a15.78 15.78 0 0 0 3.57-6.46l4.95 4.56a16 16 0 0 0 22.55-.83l2-2.18a15.71 15.71 0 0 0 4.07-8.76 16.17 16.17 0 0 0 4 .56 16 16 0 0 0 11.7-5.06l2-2.18a15.55 15.55 0 0 0 3.81-14.36 15.82 15.82 0 0 0 9.57-4.85l2-2.18a15.87 15.87 0 0 0 -.83-22.45l-3.81-3.52 34.42-38.06a18.11 18.11 0 0 0 4.65-12.14zm-225 66.84a7.19 7.19 0 0 1 -5-2l-2.16-2a7.21 7.21 0 0 1 -.25-10.2l21.79-22.73a7.19 7.19 0 0 1 5.26-2.23 7.27 7.27 0 0 1 5 2l2.15 2.06s2.23 3.29 2.23 5.23a7.15 7.15 0 0 1 -1.29 4.08l-23.51 24.5a7.32 7.32 0 0 1 -4.22 1.29zm17.4 22.68a7.31 7.31 0 0 1 -10.25.24l-2.16-2a7.23 7.23 0 0 1 -.24-10.2s29-30.23 29.29-30.52a7.26 7.26 0 0 1 10 0l2.16 2.06a7.21 7.21 0 0 1 .25 10.2zm23.81 12.86a7.31 7.31 0 0 1 -10.25.24l-2.17-2.06a7.18 7.18 0 0 1 -.63-9.72l20.22-21.11a7.25 7.25 0 0 1 9.85.1l2.17 2.06a7.21 7.21 0 0 1 .25 10.2zm38.43-2.23-12.27 12.81a7.32 7.32 0 0 1 -10.26.24l-2.16-2.06a7.23 7.23 0 0 1 -.24-10.2l12.26-12.81a7.32 7.32 0 0 1 10.26-.24l2.17 2.06a7.23 7.23 0 0 1 .24 10.2zm106.62-34.7a7.16 7.16 0 0 1 -1.93 4.91l-2 2.18a7.31 7.31 0 0 1 -10.25.37l-34.26-31.69-5.93 6.35 36.68 34a7.21 7.21 0 0 1 .38 10.2l-2 2.18a7.23 7.23 0 0 1 -5.32 2.29 7.15 7.15 0 0 1 -4.92-1.91l-34.35-31.76-5.92 6.34 30.42 28.13a7.21 7.21 0 0 1 .3 10.1l-2 2.18a7.3 7.3 0 0 1 -10.25.38l-30.36-28-5.99 6.33.11.11 15.21 14a7.21 7.21 0 0 1 2.05 5 7.12 7.12 0 0 1 -1.92 4.88l-2 2.19a7.31 7.31 0 0 1 -10.23.37l-13.22-12.23a15.62 15.62 0 0 0 -3.13-18.67l-2.17-2.06a16 16 0 0 0 -11-4.37c-.31 0-.61.07-.91.09 0-.07 0-.15 0-.22 0-4.17-4.93-11.5-4.93-11.5l-2.16-2a15.86 15.86 0 0 0 -8-4.09 15.66 15.66 0 0 0 -4-16.75l-2.16-2.06a16 16 0 0 0 -11-4.38c-.46 0-.91.1-1.37.14a15.78 15.78 0 0 0 -4.88-11l-2.16-2.05a16 16 0 0 0 -22.55.53l-5.15 5.36-22.78-19.43a7 7 0 0 1 -.68-10l24-26.93a11.15 11.15 0 0 1 4-2.71 14.39 14.39 0 0 1 5.28-1 10.46 10.46 0 0 1 4.11.78l13.2 5.63a35.63 35.63 0 0 0 24.76 0l13.19-5.63a21.6 21.6 0 0 1 8.16-1.43 20.71 20.71 0 0 1 8.71 1.68l3.52 1.76-13.43 9.41a15.53 15.53 0 0 0 -3.55 22l1.78 2.39a17.36 17.36 0 0 0 13.89 6.8 16.83 16.83 0 0 0 8.69-2.37l8.05-4.83a13.3 13.3 0 0 1 6.68-1.63 14 14 0 0 1 7.87 2.22l22.26 16a223.45 223.45 0 0 1 17.49 14.27l25.77 23.82a7.23 7.23 0 0 1 2.3 5.33zm27.76-59-34.33 38-15.58-14.41a228.46 228.46 0 0 0 -18.33-15l-22.25-16a22.5 22.5 0 0 0 -13-3.85 21.94 21.94 0 0 0 -11.19 2.87l-8 4.84a8.11 8.11 0 0 1 -4.19 1.12 8.67 8.67 0 0 1 -6.91-3.3l-1.77-2.39a6.89 6.89 0 0 1 1.58-9.82l23.79-16.71a16.72 16.72 0 0 1 9.19-2.51 14.74 14.74 0 0 1 6.3 1.25l19.37 9.38a25 25 0 0 0 10.78 2.25 26.55 26.55 0 0 0 13.7-3.54l19.78-12.31a8.29 8.29 0 0 1 4.36-1.19 8.75 8.75 0 0 1 6.86 3.18l20.28 26a9.47 9.47 0 0 1 1.85 5.76 9.63 9.63 0 0 1 -2.29 6.31z" transform="translate(-60.29 -331.88)"/><text font-family="Jost-Heavy, &quot;Jost*&quot;" font-size="90" font-weight="800" transform="matrix(.94 0 0 1 0 76.5)">HELP FOR FUTURE</text></g></svg>