<svg id="Ebene_1" data-name="Ebene 1" xmlns="http://www.w3.org/2000/svg" viewBox="0 0 490.5 476"><defs><style>.cls-1{fill:#1da64a;}</style></defs><rect class="cls-1" x="100.92" y="113.52" width="116.99" height="166.95"/><path class="cls-1" d="M744,980.5H373.53a60,60,0,0,0-60,60v356a60,60,0,0,0,60,60H744a60,60,0,0,0,60-60v-356A60,60,0,0,0,744,980.5ZM378,1429.28l-5.19-11.22h-17l-5.11,11.22H339.11l25.2-52.68,25.28,52.68Zm3.52-134.72V1060.4a33.5,33.5,0,0,1,33.4-33.4H532.1a33.55,33.55,0,0,1,33.46,33.44V1294.6a33.5,33.5,0,0,1-33.4,33.4H415A33.44,33.44,0,0,1,381.54,1294.56ZM424.8,1407q-4.82,4.23-13.7,4.23h-5.89v18H395v-49.7H411.1q8.88,0,13.7,4.26t4.83,11.64Q429.63,1402.8,424.8,1407Zm42.6,0q-4.81,4.23-13.7,4.23h-5.89v18H437.58v-49.7H453.7q8.88,0,13.7,4.26t4.83,11.64Q472.23,1402.8,467.4,1407Zm63.05,22.26L512,1406.77v22.51H501.48v-49.7H512v20.16l17.68-20.16h12.14l-20.59,23.29,21.58,26.41Zm51.4,0-5.18-11.22h-17l-5.11,11.22H543l25.2-52.68,25.28,52.68Zm62.13,2.49-35.22-33.16v30.67h-9.94V1377.1l35.29,33.15v-30.67H644Zm-45.52-253.66V1053.27a25,25,0,0,1,25-25h84a25,25,0,0,1,25,25v49.83a25.06,25.06,0,0,1-25,25.05H648.73Zm90.75,191.81a5,5,0,0,1-1.6,3.73,5.84,5.84,0,0,1-7.88,0,5.18,5.18,0,0,1,0-7.49,6,6,0,0,1,7.88,0A5,5,0,0,1,689.21,1369.92Zm-18.46-.28a5,5,0,0,1-1.6,3.73,5.48,5.48,0,0,1-3.94,1.52,5.59,5.59,0,0,1-4-1.52,5.12,5.12,0,0,1,0-7.49,5.65,5.65,0,0,1,4-1.49,5.54,5.54,0,0,1,3.94,1.49A4.94,4.94,0,0,1,670.75,1369.64Zm17.53,59.64-5.18-11.22h-17L661,1429.28H649.37l25.21-52.68,25.27,52.68Zm47,0h-30v-49.7h10.22v40.75h19.81Zm37.42-41H751v10.44h20.31v8.45H751v13.49H772.7v8.66H741v-49.7H772.7Z" transform="translate(-313.53 -980.5)"/><polygon class="cls-1" points="44.68 429.47 56.89 429.47 50.79 415.27 44.68 429.47"/><path class="cls-1" d="M417.42,1390.09a9.94,9.94,0,0,0-6.32-1.85h-5.89v14.34h5.89a10.06,10.06,0,0,0,6.32-1.81,6.27,6.27,0,0,0,2.34-5.29A6.46,6.46,0,0,0,417.42,1390.09Z" transform="translate(-313.53 -980.5)"/><path class="cls-1" d="M460,1390.09a9.94,9.94,0,0,0-6.32-1.85h-5.89v14.34h5.89a10.06,10.06,0,0,0,6.32-1.81,6.27,6.27,0,0,0,2.34-5.29A6.46,6.46,0,0,0,460,1390.09Z" transform="translate(-313.53 -980.5)"/><polygon class="cls-1" points="354.95 429.47 367.16 429.47 361.05 415.27 354.95 429.47"/><polygon class="cls-1" points="248.52 429.47 260.73 429.47 254.63 415.27 248.52 429.47"/></svg>