<svg id="Ebene_1" data-name="Ebene 1" xmlns="http://www.w3.org/2000/svg" viewBox="0 0 225 225">
    <path fill="#1da64a"
        d="M732.08,301.48h-165a30,30,0,0,0-30,30v165a30,30,0,0,0,30,30h165a30,30,0,0,0,30-30v-165A30,30,0,0,0,732.08,301.48Zm-14.31,77.34c.08,1.56.08,3,.08,4.58,0,46.35-35.4,99.8-99.81,99.8a99.27,99.27,0,0,1-53.78-15.77,70.64,70.64,0,0,0,8.33.49,69.65,69.65,0,0,0,43.57-15,35,35,0,0,1-32.69-24.36,34.54,34.54,0,0,0,15.77-.57,35.1,35.1,0,0,1-28.12-34.41v-.25a34.72,34.72,0,0,0,15.94,4.09,34.94,34.94,0,0,1-10.87-46.68,99.68,99.68,0,0,0,72.26,36.62,36.54,36.54,0,0,1-.9-8,35,35,0,0,1,34.9-35.06,34.51,34.51,0,0,1,25.83,11.11,70.52,70.52,0,0,0,22.24-8.58,35.2,35.2,0,0,1-15.37,19.46,69.85,69.85,0,0,0,20.11-5.65A70,70,0,0,1,717.77,378.82Z"
        transform="translate(-537.08 -301.48)" />
</svg>