<svg id="Ebene_1" data-name="Ebene 1" xmlns="http://www.w3.org/2000/svg" viewBox="0 0 218.2 268.2"><defs><style>.cls-1,.cls-2{fill:#fff;}.cls-2{font-size:60px;font-family:Jost-Heavy, "Jost*";font-weight:800;}</style></defs><path class="cls-1" d="M519,515.35a95.5,95.5,0,0,1,38.16,8.1A26.86,26.86,0,0,1,573,548V562.6H465V548.11a26.67,26.67,0,0,1,15.84-24.57A94,94,0,0,1,519,515.35Zm-72,2.25a18,18,0,1,0-18-18A18.05,18.05,0,0,0,447,517.6Zm10.17,9.9A61.18,61.18,0,0,0,422,531.82a18.1,18.1,0,0,0-11,16.65V562.6h40.5V548.11A40.49,40.49,0,0,1,457.14,527.5ZM591,517.6a18,18,0,1,0-18-18A18.05,18.05,0,0,0,591,517.6Zm36,30.87a18.1,18.1,0,0,0-11-16.65,61.18,61.18,0,0,0-35.19-4.32,40.49,40.49,0,0,1,5.67,20.61V562.6H627ZM519,454.6a27,27,0,1,1-27,27A27,27,0,0,1,519,454.6Z" transform="translate(-410.97 -387)"/><text class="cls-2" transform="translate(14.49 246) scale(0.94 1)">MEDIA</text><text class="cls-2" transform="translate(1.76 51) scale(0.94 1)">SOCIAL</text></svg>