<svg id="Ebene_1" data-name="Ebene 1" xmlns="http://www.w3.org/2000/svg" viewBox="0 0 225 225">
    <path fill="#1da64a"
        d="M732.08,301.48h-165a30,30,0,0,0-30,30v165a30,30,0,0,0,30,30h165a30,30,0,0,0,30-30v-165A30,30,0,0,0,732.08,301.48Zm-68.5,199.84V441h20.17l3.89-25H663.58V400.34c0-6.76,3.24-13.36,13.54-13.36h10.46V365.36a131.54,131.54,0,0,0-18.92-1.63c-19.43,0-32.08,11.82-32.08,33.32V416h-22v25h22v60.34a86.49,86.49,0,0,1-73-85.34c0-47.67,39-86.38,86.54-86.38s86.54,38.71,86.54,86.38S711.35,501.32,663.58,501.32Z"
        transform="translate(-537.08 -301.48)" />
</svg>