<svg viewBox="0 0 218.2 268.2" xmlns="http://www.w3.org/2000/svg"><g fill="#fff"><path d="m519 515.35a95.5 95.5 0 0 1 38.16 8.1 26.86 26.86 0 0 1 15.84 24.55v14.6h-108v-14.49a26.67 26.67 0 0 1 15.84-24.57 94 94 0 0 1 38.16-8.19zm-72 2.25a18 18 0 1 0 -18-18 18.05 18.05 0 0 0 18 18zm10.17 9.9a61.18 61.18 0 0 0 -35.17 4.32 18.1 18.1 0 0 0 -11 16.65v14.13h40.5v-14.49a40.49 40.49 0 0 1 5.64-20.61zm133.83-9.9a18 18 0 1 0 -18-18 18.05 18.05 0 0 0 18 18zm36 30.87a18.1 18.1 0 0 0 -11-16.65 61.18 61.18 0 0 0 -35.19-4.32 40.49 40.49 0 0 1 5.67 20.61v14.49h40.52zm-108-93.87a27 27 0 1 1 -27 27 27 27 0 0 1 27-27z" transform="translate(-410.97 -387)"/><g font-family="Jost-Heavy, &quot;Jost*&quot;" font-size="60" font-weight="800"><text transform="matrix(.94 0 0 1 14.49 246)">MEDIA</text><text transform="matrix(.94 0 0 1 1.76 51)">SOCIAL</text></g></g></svg>