<svg id="Ebene_1" data-name="Ebene 1" xmlns="http://www.w3.org/2000/svg" viewBox="0 0 225 225">
    <polygon fill="#1da64a" points="96.5 139.04 141.12 113.25 96.5 87.46 96.5 139.04" />
    <path fill="#1da64a"
        d="M732.08,301.48h-165a30,30,0,0,0-30,30v165a30,30,0,0,0,30,30h165a30,30,0,0,0,30-30v-165A30,30,0,0,0,732.08,301.48Zm.43,154.77a20.13,20.13,0,0,1-14.87,14.87c-4,1.12-11.43,1.89-22.78,2.41-11.18.6-21.41.86-30.86.86l-13.67.52c-36,0-58.46-1.38-67.31-3.79-7.74-2.15-12.73-7.13-14.87-14.87a88.18,88.18,0,0,1-2.41-16.33c-.6-6.88-.86-12.81-.86-18l-.52-7.22c0-18.83,1.38-32.67,3.79-41.52A20.1,20.1,0,0,1,583,358.34c4-1.12,11.43-1.9,22.78-2.41,11.17-.6,21.4-.86,30.86-.86l13.67-.52c36,0,58.46,1.38,67.31,3.79,7.74,2.14,12.72,7.13,14.87,14.87a88.9,88.9,0,0,1,2.41,16.33c.6,6.88.86,12.81.86,18l.52,7.22C736.3,433.56,734.92,447.4,732.51,456.25Z"
        transform="translate(-537.08 -301.48)" />
</svg>