<svg id="Ebene_1" data-name="Ebene 1" xmlns="http://www.w3.org/2000/svg" viewBox="0 0 490.5 476">
    <path fill="#1da64a"
        d="M596.41,411.59H775.69a35.93,35.93,0,0,1,35.82-35.82V304.54a35.92,35.92,0,0,1-35.82-35.81H596.43a35.88,35.88,0,0,1-35.84,35.71v71.33A35.93,35.93,0,0,1,596.41,411.59Zm89.66-124.93a53.73,53.73,0,1,1-53.72,53.73A53.66,53.66,0,0,1,686.07,286.66Z"
        transform="translate(-404.33 -174.33)" />
    <path fill="#1da64a"
        d="M539.11,577.85a11.45,11.45,0,0,0-7.3-2.14H525v16.57h6.81a11.68,11.68,0,0,0,7.3-2.09,7.26,7.26,0,0,0,2.7-6.11A7.45,7.45,0,0,0,539.11,577.85Z"
        transform="translate(-404.33 -174.33)" />
    <path fill="#1da64a"
        d="M834.83,174.33H464.33a60,60,0,0,0-60,60v356a60,60,0,0,0,60,60h370.5a60,60,0,0,0,60-60v-356A60,60,0,0,0,834.83,174.33ZM500.89,616.55a18.25,18.25,0,0,1-7.5,6,24,24,0,0,1-9.8,2,24.65,24.65,0,0,1-9.88-2,25.64,25.64,0,0,1-7.95-5.33,25.2,25.2,0,0,1-5.29-7.46l8.53-6.07a27.45,27.45,0,0,0,6.27,7.71,12.49,12.49,0,0,0,8.16,2.95,8.48,8.48,0,0,0,5.74-1.85,6.13,6.13,0,0,0,2.13-4.88,6.64,6.64,0,0,0-1.35-4.3,11.35,11.35,0,0,0-4-2.95q-2.62-1.28-6.48-2.75c-1.42-.55-3-1.23-4.75-2.05a23.47,23.47,0,0,1-5.05-3.24,16.24,16.24,0,0,1-4-4.92,14.66,14.66,0,0,1-1.56-7,14.26,14.26,0,0,1,2.5-8.41,16.5,16.5,0,0,1,6.8-5.53,23.15,23.15,0,0,1,9.72-2,22.41,22.41,0,0,1,9.43,1.85,21,21,0,0,1,6.68,4.67,24.6,24.6,0,0,1,4.15,5.78l-9.19,5.25a18.62,18.62,0,0,0-4.51-5.29,10.13,10.13,0,0,0-6.56-2.17,7.32,7.32,0,0,0-5.16,1.6,4.94,4.94,0,0,0-1.73,3.73,6.19,6.19,0,0,0,3.2,5.29,45,45,0,0,0,9.68,4.3,30.63,30.63,0,0,1,7.09,3.57,18.38,18.38,0,0,1,5.41,5.66,15.38,15.38,0,0,1,2.09,8.24A15.64,15.64,0,0,1,500.89,616.55Zm46.74-19.15q-5.57,4.89-15.82,4.88H525v20.83H513.19v-57.4h18.62q10.25,0,15.82,4.92t5.58,13.45Q553.21,592.53,547.63,597.4ZM599,575.71H573.87v12.06h23.45v9.76H573.87v15.58H599v10H562.39v-57.4H599ZM662.68,626,622,587.69v35.42H610.53V562.84l40.75,38.29V565.71h11.4Zm58.3-16.4a25.66,25.66,0,0,1-10.54,10,33.88,33.88,0,0,1-15.86,3.53H675.06v-57.4h19.52a33.88,33.88,0,0,1,15.86,3.53,25.76,25.76,0,0,1,10.54,10,32.49,32.49,0,0,1,0,30.38Zm49.44-33.87H745.33v12.06h23.45v9.76H745.33v15.58h25.09v10H733.85v-57.4h36.57Zm5.38-56.06H453.44V304.44h35.72V483.93H775.8ZM834.14,626l-40.67-38.29v35.42H782V562.84l40.75,38.29V565.71h11.4Zm13.09-177.76H524.87V233H847.23Z"
        transform="translate(-404.33 -174.33)" />
    <path fill="#1da64a"
        d="M703.47,578.3a22.39,22.39,0,0,0-9.22-1.85h-7v35.92h7a22.39,22.39,0,0,0,9.22-1.85,14.83,14.83,0,0,0,6.64-5.82,22.35,22.35,0,0,0,0-20.58A14.83,14.83,0,0,0,703.47,578.3Z"
        transform="translate(-404.33 -174.33)" />
</svg>