<svg id="Ebene_1" data-name="Ebene 1" xmlns="http://www.w3.org/2000/svg" viewBox="0 0 495.46 476">
    <path fill="#1da64a" d="M541.32,432.4H541A120.51,120.51,0,0,0,606,486c-9-16.7-15.8-34.76-21.07-53.58Z"
        transform="translate(-401.85 -174.79)" />
    <path fill="#1da64a"
        d="M577.43,371.84a249.38,249.38,0,0,1,2.11-30.1H528.67a117.81,117.81,0,0,0,0,60.2h50.87A249.24,249.24,0,0,1,577.43,371.84Z"
        transform="translate(-401.85 -174.79)" />
    <path fill="#1da64a" d="M645.16,252.41a205,205,0,0,0-28.75,59.75H673.9A205,205,0,0,0,645.16,252.41Z"
        transform="translate(-401.85 -174.79)" />
    <path fill="#1da64a" d="M749.3,312.16a120.13,120.13,0,0,0-65.16-53.58,235.49,235.49,0,0,1,20.77,53.58Z"
        transform="translate(-401.85 -174.79)" />
    <path fill="#1da64a" d="M606,258.58a119.24,119.24,0,0,0-65,53.58h44C590.23,293.34,597,275.28,606,258.58Z"
        transform="translate(-401.85 -174.79)" />
    <path fill="#1da64a" d="M749.3,432.4H704.91A235.49,235.49,0,0,1,684.14,486,120.78,120.78,0,0,0,749.3,432.4Z"
        transform="translate(-401.85 -174.79)" />
    <path fill="#1da64a"
        d="M712.88,371.84a249.24,249.24,0,0,1-2.1,30.1h50.87a117.81,117.81,0,0,0,0-60.2H710.78A249.38,249.38,0,0,1,712.88,371.84Z"
        transform="translate(-401.85 -174.79)" />
    <path fill="#1da64a"
        d="M641.83,598.67a13.2,13.2,0,0,0-7.38-1.93H626.9V613.3h7.55a12.62,12.62,0,0,0,7.38-2q3-2,2.95-6.47Q644.78,600.6,641.83,598.67Z"
        transform="translate(-401.85 -174.79)" />
    <path fill="#1da64a"
        d="M837.31,174.79H461.85a60,60,0,0,0-60,60v356a60,60,0,0,0,60,60H837.31a60,60,0,0,0,60-60v-356A60,60,0,0,0,837.31,174.79ZM645.16,221.64a150.5,150.5,0,1,1-150.5,150.5C494.66,289.37,561.93,221.64,645.16,221.64Zm-109,404.21L518,588.38l-18.12,37.47-24.11-60.6h13.86L502,600.84l16-38.46,16.15,38.46,12.3-35.59h13.78Zm67.4-50.6H578.44v12.06h23.45v9.76H578.44v15.58h25.09v10H567v-57.4h36.57Zm50.68,40.31a15.64,15.64,0,0,1-7.54,5.37,33.44,33.44,0,0,1-11.24,1.72H615.1v-57.4h19.18a28.8,28.8,0,0,1,10,1.6,15.06,15.06,0,0,1,6.84,4.8,12.77,12.77,0,0,1,2.51,8.12,11.55,11.55,0,0,1-2.3,7.25,14.89,14.89,0,0,1-6.23,4.64,18.87,18.87,0,0,1,8.44,5.12,13.27,13.27,0,0,1,3.37,9.47A15.25,15.25,0,0,1,654.21,615.56Zm49.69.53a18.17,18.17,0,0,1-7.5,6,24.08,24.08,0,0,1-9.8,2,24.62,24.62,0,0,1-9.88-2,25.69,25.69,0,0,1-8-5.33,25.38,25.38,0,0,1-5.29-7.46L672,603.3a27.65,27.65,0,0,0,6.28,7.71,12.39,12.39,0,0,0,8.15,3,8.46,8.46,0,0,0,5.74-1.85,6.13,6.13,0,0,0,2.14-4.87,6.62,6.62,0,0,0-1.36-4.31,11.33,11.33,0,0,0-4-2.95c-1.75-.85-3.91-1.76-6.48-2.75-1.42-.54-3-1.23-4.76-2.05a23.41,23.41,0,0,1-5-3.24,16.42,16.42,0,0,1-4-4.92,14.64,14.64,0,0,1-1.56-7,14.23,14.23,0,0,1,2.51-8.4,16.38,16.38,0,0,1,6.8-5.54,23.15,23.15,0,0,1,9.72-2,22.41,22.41,0,0,1,9.43,1.85,21.29,21.29,0,0,1,6.68,4.67,24.46,24.46,0,0,1,4.14,5.78l-9.18,5.25a18.78,18.78,0,0,0-4.51-5.29,10.2,10.2,0,0,0-6.56-2.17,7.34,7.34,0,0,0-5.17,1.6,4.93,4.93,0,0,0-1.72,3.73,6.19,6.19,0,0,0,3.2,5.29,45.15,45.15,0,0,0,9.67,4.3,30.7,30.7,0,0,1,7.1,3.57,18.38,18.38,0,0,1,5.41,5.66,15.47,15.47,0,0,1,2.09,8.24A15.71,15.71,0,0,1,703.9,616.09Zm24.27,6.56h-12v-57.4h12Zm49.37-46.74H762v46.74H750.23V575.91H734.81V565.25h42.73Zm43.21-.66H795.66v12.06h23.45v9.76H795.66v15.58h25.09v10H784.18v-57.4h36.57Z"
        transform="translate(-401.85 -174.79)" />
    <path fill="#1da64a"
        d="M639.29,586.37a6.23,6.23,0,0,0,2.21-5,6,6,0,0,0-2.21-5,9.53,9.53,0,0,0-6.07-1.76H626.9v13.61h6.32A9.2,9.2,0,0,0,639.29,586.37Z"
        transform="translate(-401.85 -174.79)" />
    <path fill="#1da64a" d="M645.16,492a204,204,0,0,0,28.74-59.6H616.41A204.07,204.07,0,0,0,645.16,492Z"
        transform="translate(-401.85 -174.79)" />
    <path fill="#1da64a"
        d="M680.33,401.87a221.72,221.72,0,0,0,2.41-30.07,219.65,219.65,0,0,0-2.41-30.06H610a188.74,188.74,0,0,0,0,60.13Z"
        transform="translate(-401.85 -174.79)" />
</svg>