<svg id="Ebene_1" data-name="Ebene 1" xmlns="http://www.w3.org/2000/svg" viewBox="0 0 1033 387">
    <path fill="#1da64a"
        d="M1151.42,190.65H214.74a48.16,48.16,0,0,0-48.16,48.16V529.49a48.16,48.16,0,0,0,48.16,48.16h936.68a48.16,48.16,0,0,0,48.16-48.16V238.81A48.17,48.17,0,0,0,1151.42,190.65ZM432.87,417.1l-25.64-53-25.63,53-34.11-85.73H367.1l17.51,50.35,22.62-54.41,22.86,54.41,17.4-50.35H467Zm95.35-71.57H492.73v17.05H525.9v13.8H492.73v22h35.49v14.15H476.49v-81.2h51.73Zm33.29,67H544.58v-81.2h16.93Zm69.83-66.12H609.42v66.12h-16.7V346.45H570.91V331.37h60.43Zm61.14-.92H657v17.05h33.18v13.8H657v22h35.5v14.15H640.74v-81.2h51.74Zm59.15,67-18.9-29.46h-7.2v29.46h-16.7v-81.2h27.38a37.25,37.25,0,0,1,16.41,3.31A24.44,24.44,0,0,1,763,343.79a25.19,25.19,0,0,1,3.6,13.57,23.7,23.7,0,0,1-17.17,23.78l22,31.43Zm80.86-67H797v17.05h33.18v13.8H797v22h35.5v14.15H780.75v-81.2h51.74Zm68.67,57.76a25.72,25.72,0,0,1-10.62,8.47,33.93,33.93,0,0,1-13.86,2.9,35,35,0,0,1-14-2.78,36.5,36.5,0,0,1-11.25-7.54A35.81,35.81,0,0,1,844,393.78L856,385.2a38.79,38.79,0,0,0,8.88,10.9,17.56,17.56,0,0,0,11.54,4.18,12,12,0,0,0,8.12-2.61,8.67,8.67,0,0,0,3-6.9,9.36,9.36,0,0,0-1.91-6.09A16,16,0,0,0,880,380.5q-3.7-1.8-9.16-3.89-3-1.16-6.73-2.9a33.13,33.13,0,0,1-7.13-4.58,23,23,0,0,1-5.63-7,20.74,20.74,0,0,1-2.2-9.92,20.19,20.19,0,0,1,3.54-11.89,23.28,23.28,0,0,1,9.62-7.83,32.86,32.86,0,0,1,13.75-2.78,31.69,31.69,0,0,1,13.34,2.61,29.89,29.89,0,0,1,9.45,6.61,34.47,34.47,0,0,1,5.86,8.18l-13,7.42a26.68,26.68,0,0,0-6.38-7.48A14.35,14.35,0,0,0,876.1,344c-3.25,0-5.68.75-7.31,2.26a7,7,0,0,0-2.43,5.28q0,4.51,4.52,7.48t13.69,6.09a42.91,42.91,0,0,1,10,5.05,26,26,0,0,1,7.66,8,21.89,21.89,0,0,1,3,11.66A22.23,22.23,0,0,1,901.16,403.29Zm33.75,9a9.67,9.67,0,0,1-13.69,0,9.4,9.4,0,0,1-2.66-6.67,9.22,9.22,0,0,1,2.66-6.61,9.82,9.82,0,0,1,13.69,0,9.23,9.23,0,0,1,2.67,6.61A9.4,9.4,0,0,1,934.91,412.28Zm36.54,0a9.67,9.67,0,0,1-13.69,0,9.4,9.4,0,0,1-2.67-6.67,9.23,9.23,0,0,1,2.67-6.61,9.82,9.82,0,0,1,13.69,0,9.23,9.23,0,0,1,2.67,6.61A9.4,9.4,0,0,1,971.45,412.28Zm36.54,0a9.67,9.67,0,0,1-13.69,0,9.4,9.4,0,0,1-2.67-6.67A9.23,9.23,0,0,1,994.3,399a9.82,9.82,0,0,1,13.69,0,9.23,9.23,0,0,1,2.67,6.61A9.4,9.4,0,0,1,1008,412.28Z"
        transform="translate(-166.58 -190.65)" />
    <path fill="#1da64a"
        d="M745.49,348.89q-3.84-3.13-10.33-3.13h-9.63v24.13h9.63q6.5,0,10.33-3.19a10.94,10.94,0,0,0,3.82-8.88Q749.31,352,745.49,348.89Z"
        transform="translate(-166.58 -190.65)" />
</svg>